<svg xmlns="http://www.w3.org/2000/svg" width="109" height="109" fill="none">
  <rect width="109" height="109" fill="#43D068" opacity=".3" rx="24"/>
  <path fill="#43D068"
        d="M45.102 60.961a5.513 5.513 0 0 1-.12.838c-.048.295-.2.536-.458.722a1.28 1.28 0 0 1-.65.28 1.9 1.9 0 0 1-.723-.047 2.503 2.503 0 0 1-.65-.233 1.727 1.727 0 0 1-.507-.442 25.44 25.44 0 0 1-1.518-2.003c-.45-.698-.907-1.397-1.373-2.096l-2.024-2.957c-.273-.419-.562-.885-.867-1.397a18.257 18.257 0 0 0-.94-1.467l-.072 8.895v.21c0 .248-.049.496-.145.745a1.34 1.34 0 0 1-.434.605c-.16.125-.369.21-.626.256-.402.078-.739.055-1.012-.07a1.664 1.664 0 0 1-.626-.512 2.236 2.236 0 0 1-.314-.745 3.112 3.112 0 0 1-.024-.861v-.396l.049-1.817.024-3.376c.016-.497.024-1.001.024-1.514v-1.606a46.453 46.453 0 0 1 0-2.12c.032-.744.064-1.443.096-2.095.032-.357.12-.66.265-.908.064-.217.233-.404.506-.559.177-.109.402-.178.675-.21.289-.03.538-.023.747.024.08.03.16.07.24.116.08.031.161.07.241.117.08.062.153.124.217.186.08.062.153.132.217.21.08.077.153.163.217.256l.193.232c.048.094.096.179.144.257.049.077.105.155.169.233l.265.372 5.566 8.476v-1.537c0-.497-.008-1.001-.024-1.513a57 57 0 0 0-.024-1.63v-2.096c.016-.745.04-1.444.072-2.096 0-.264.08-.566.24-.908.081-.202.218-.365.41-.489.193-.124.41-.21.651-.256a1.89 1.89 0 0 1 .723 0c.24.047.45.14.626.28.048.046.097.1.145.162a.9.9 0 0 1 .12.21c.08.202.129.38.145.535.048.218.072.412.072.583v5.938l.048 5.937c0 .218.008.435.024.652.017.202.017.412 0 .629ZM50.826 49.039l-.048 3.656h.963a75.64 75.64 0 0 1 1.76-.024c.513 0 1.083.008 1.71.024h.12c.193 0 .378.007.554.023h.555c.192.015.377.046.554.093.176.031.353.07.53.117.273.093.498.232.675.419.16.201.24.426.24.675v.28a.664.664 0 0 1-.048.255c-.032.171-.136.326-.313.466-.08.109-.233.186-.458.233-.209.062-.417.1-.626.117-.225.046-.45.07-.675.07h-1.132l-4.458.023-.048 4.564 4.795.046H56.97c.112 0 .217.008.313.023.128.032.24.055.337.07.113 0 .217.016.314.047a1.4 1.4 0 0 1 .481.256c.161.155.266.318.314.489.016.078.024.163.024.256a.684.684 0 0 1 0 .256c0 .249-.08.474-.241.676a1.299 1.299 0 0 1-.675.419 2.87 2.87 0 0 1-1.108.21 6.346 6.346 0 0 1-.554.023c-.193 0-.378.007-.554.023h-.145a81.633 81.633 0 0 1-3.903 0c-.322 0-.579-.008-.771-.023h-1.615c-.37.03-.674-.032-.915-.187a1.106 1.106 0 0 1-.41-.442c-.048-.047-.072-.093-.072-.14a.27.27 0 0 0-.048-.07.271.271 0 0 1-.049-.07 1.299 1.299 0 0 1-.072-.232 1.525 1.525 0 0 1-.024-.257l-.048-.232a1.15 1.15 0 0 0-.024-.233V60.379a.744.744 0 0 0 .024-.186v-1.817l.048-3.353v-4.587c.016-.435.032-.908.048-1.42v-.117c.016-.17.024-.326.024-.466a4.51 4.51 0 0 0 .024-.465 2.11 2.11 0 0 1 .266-.909c.064-.124.128-.232.192-.325a.955.955 0 0 1 .313-.233c.241-.14.49-.21.747-.21.129 0 .225.008.29.023v-.023h1.758c.193-.015.458-.023.795-.023a70.283 70.283 0 0 1 3.614 0h.097c.177.015.361.023.554.023.193 0 .378.008.554.023.177 0 .354.024.53.07.177.031.354.078.53.14.274.078.498.21.675.396.145.217.217.434.217.652v.28a.604.604 0 0 1-.048.232c-.016.155-.113.318-.29.49a3.28 3.28 0 0 0-.216.116.852.852 0 0 1-.241.116c-.096.031-.2.054-.313.07-.097 0-.193.008-.29.023a1.545 1.545 0 0 1-.36.047H55.644l-4.82.023v.07ZM77.952 47.176c.064.295.064.605 0 .931l-.097.466a4.97 4.97 0 0 1-.072.443l-.024.093c-.225.962-.482 1.979-.771 3.05a156.054 156.054 0 0 0-.747 3.004c-.193.776-.393 1.63-.602 2.561a43.275 43.275 0 0 1-.65 2.562c-.081.264-.17.527-.266.791a5.41 5.41 0 0 1-.313.792 2.857 2.857 0 0 1-.41.629c-.144.17-.313.295-.506.372-.192.094-.401.125-.626.094-.209-.016-.442-.11-.699-.28a2.402 2.402 0 0 1-.867-1.094 14.257 14.257 0 0 0-.554-1.281c-.065-.109-.161-.35-.29-.722-.128-.372-.265-.776-.41-1.21-.144-.45-.288-.878-.433-1.281a7.268 7.268 0 0 0-.337-.932c-.145.342-.29.73-.434 1.164a57.46 57.46 0 0 0-.41 1.281c-.128.42-.248.8-.36 1.141a61.91 61.91 0 0 1-.218.722c-.128.31-.273.652-.433 1.025-.145.372-.33.69-.555.954a1.409 1.409 0 0 1-.77.513c-.306.093-.667.007-1.085-.257a1.504 1.504 0 0 1-.675-.791c-.08-.218-.16-.427-.24-.629a4.097 4.097 0 0 1-.193-.629l-.482-1.746-.988-3.75c-.129-.48-.257-.97-.386-1.466a22.92 22.92 0 0 0-.41-1.584c-.08-.263-.152-.52-.216-.768a25.187 25.187 0 0 0-.169-.838 21.51 21.51 0 0 0-.192-1.048 63.818 63.818 0 0 0-.241-1.35 6.68 6.68 0 0 1-.073-.466c0-.156.017-.31.049-.466a.97.97 0 0 1 .337-.605.916.916 0 0 1 .29-.187c.111-.046.232-.085.36-.116.193-.062.394-.093.603-.093.193 0 .393.062.602.186a.896.896 0 0 1 .338.303l.289.489c.032.108.064.21.096.302.032.078.064.163.096.257.032.108.057.21.073.302l.048.233c.144.807.321 1.591.53 2.352.209.76.401 1.49.578 2.189l.241 1.048c.096.403.193.83.29 1.28.096.435.192.854.288 1.258.097.403.193.722.29.954l.626-2.095c.225-.699.466-1.405.723-2.12.128-.372.257-.706.385-1 .145-.311.306-.567.482-.769.177-.202.378-.334.603-.396.224-.062.49-.039.795.07.273.109.514.342.723.699.208.357.393.721.554 1.094.144.342.28.706.41 1.095.144.372.28.745.409 1.117.145.357.281.699.41 1.025.128.326.256.605.385.838.048-.17.105-.388.169-.652.064-.264.128-.543.193-.838.08-.31.152-.614.216-.908.065-.295.129-.567.193-.815.209-.839.426-1.677.65-2.515.225-.854.442-1.692.651-2.515l.12-.396a.604.604 0 0 0 .049-.233c.016-.093.04-.194.072-.303a4.57 4.57 0 0 1 .097-.256c.032-.093.064-.194.096-.302l.096-.233c.048-.093.105-.179.169-.256a.647.647 0 0 1 .169-.187c.064-.046.128-.085.192-.116.225-.124.418-.186.579-.186.208 0 .41.03.602.093.257.046.49.147.699.303a.99.99 0 0 1 .289.605Z"/>
</svg>
