<svg xmlns="http://www.w3.org/2000/svg" width="15" height="14" viewBox="0 0 15 14" fill="none">
  <mask id="mask0_5744_30018" style="mask-type:alpha" maskUnits="userSpaceOnUse" x="0" y="0" width="15" height="14">
    <rect x="0.5" width="14" height="14" fill="#D9D9D9"/>
  </mask>
  <g mask="url(#mask0_5744_30018)">
    <path
      d="M7.4974 12.8327C6.69045 12.8327 5.93212 12.6796 5.2224 12.3733C4.51267 12.0671 3.89531 11.6514 3.37031 11.1264C2.84531 10.6014 2.42969 9.98407 2.12344 9.27435C1.81719 8.56463 1.66406 7.80629 1.66406 6.99935C1.66406 6.1924 1.81719 5.43407 2.12344 4.72435C2.42969 4.01463 2.84531 3.39727 3.37031 2.87227C3.89531 2.34727 4.51267 1.93164 5.2224 1.62539C5.93212 1.31914 6.69045 1.16602 7.4974 1.16602C8.12934 1.16602 8.72726 1.25838 9.29115 1.4431C9.85503 1.62782 10.3752 1.88546 10.8516 2.21602L10.0057 3.07643C9.63629 2.8431 9.24254 2.66081 8.82448 2.52956C8.40642 2.39831 7.96406 2.33268 7.4974 2.33268C6.20434 2.33268 5.1033 2.7872 4.19427 3.69622C3.28524 4.60525 2.83073 5.70629 2.83073 6.99935C2.83073 8.29241 3.28524 9.39345 4.19427 10.3025C5.1033 11.2115 6.20434 11.666 7.4974 11.666C8.79045 11.666 9.89149 11.2115 10.8005 10.3025C11.7095 9.39345 12.1641 8.29241 12.1641 6.99935C12.1641 6.82435 12.1543 6.64935 12.1349 6.47435C12.1155 6.29935 12.0863 6.12921 12.0474 5.96393L12.9953 5.01602C13.1023 5.32713 13.1849 5.64796 13.2432 5.97852C13.3016 6.30907 13.3307 6.64935 13.3307 6.99935C13.3307 7.80629 13.1776 8.56463 12.8714 9.27435C12.5651 9.98407 12.1495 10.6014 11.6245 11.1264C11.0995 11.6514 10.4821 12.0671 9.7724 12.3733C9.06267 12.6796 8.30434 12.8327 7.4974 12.8327ZM6.68073 9.68268L4.20156 7.20352L5.01823 6.38685L6.68073 8.04935L12.5141 2.20143L13.3307 3.0181L6.68073 9.68268Z"
      fill="white"/>
  </g>
</svg>
