<svg width="90" height="90" viewBox="0 0 90 90" fill="none" xmlns="http://www.w3.org/2000/svg">
  <mask id="mask0_2898_95606" style="mask-type:alpha" maskUnits="userSpaceOnUse" x="0" y="0" width="90" height="90">
    <rect width="90" height="90" fill="#D9D9D9"/>
  </mask>
  <g mask="url(#mask0_2898_95606)">
    <path
      d="M42.2 80.1929C41.5942 80.1929 41.0702 79.9717 40.6279 79.5294C40.1856 79.0871 39.9644 78.5631 39.9644 77.9573C39.9644 77.3516 40.1856 76.8276 40.6279 76.3852C41.0702 75.9429 41.5942 75.7218 42.2 75.7218H42.7769L42.7769 69.2602C40.0558 68.9477 37.581 68.3227 35.3527 67.3852C33.1243 66.4477 31.1207 65.2097 29.3419 63.6712L24.8058 68.2651L25.2385 68.6978C25.7048 69.1642 25.932 69.6942 25.92 70.2879C25.9079 70.8817 25.6808 71.3997 25.2385 71.8419C24.7722 72.3083 24.2421 72.5355 23.6483 72.5235C23.0546 72.5114 22.5246 72.2722 22.0582 71.8059L18.1352 67.9405C17.6689 67.4742 17.4357 66.9406 17.4357 66.3396C17.4357 65.7386 17.6689 65.205 18.1352 64.7387C18.6015 64.2723 19.1255 64.0608 19.7073 64.1041C20.289 64.1473 20.813 64.3709 21.2794 64.7747L21.6399 65.1353L26.2338 60.5416C24.5992 58.556 23.3492 56.5103 22.4838 54.4045C21.6184 52.2988 21.0415 49.9094 20.753 47.2363H14.2914V47.8132C14.2914 48.419 14.0703 48.943 13.628 49.3853C13.1857 49.8277 12.6616 50.0488 12.0559 50.0488C11.4501 50.0488 10.9261 49.8277 10.4838 49.3853C10.0415 48.943 9.82031 48.419 9.82031 47.8132V42.1882C9.82031 41.5825 10.0415 41.0585 10.4838 40.6162C10.9261 40.1738 11.4501 39.9527 12.0559 39.9527C12.6616 39.9527 13.1857 40.1738 13.628 40.6162C14.0703 41.0585 14.2914 41.5825 14.2914 42.1882V42.7652H20.753C21.0415 40.0921 21.64 37.6967 22.5487 35.579C23.4573 33.4612 24.6977 31.4215 26.2698 29.4599L21.676 24.8662L21.2794 25.2628C20.813 25.6907 20.289 25.9143 19.7073 25.9335C19.1255 25.9528 18.6015 25.7292 18.1352 25.2628C17.6689 24.7965 17.4357 24.2629 17.4357 23.6619C17.4357 23.0609 17.6689 22.5273 18.1352 22.061L22.0727 18.1235C22.539 17.6572 23.0787 17.424 23.6917 17.424C24.3046 17.424 24.8442 17.6572 25.3106 18.1235C25.7769 18.5898 25.9981 19.1234 25.9741 19.7244C25.95 20.3254 25.7048 20.859 25.2385 21.3253L24.8418 21.722L29.3779 26.2581C31.4116 24.6234 33.4572 23.3734 35.5149 22.5081C37.5726 21.6427 39.962 21.0537 42.6832 20.7412V14.2797H42.1423C41.5366 14.2797 41.0221 14.0586 40.599 13.6162C40.1759 13.1739 39.9644 12.6499 39.9644 12.0442C39.9644 11.4384 40.1856 10.9144 40.6279 10.4721C41.0702 10.0297 41.5942 9.80859 42.2 9.80859H47.825C48.4307 9.80859 48.9547 10.0297 49.3971 10.4721C49.8394 10.9144 50.0605 11.4384 50.0605 12.0442C50.0605 12.6499 49.8394 13.1739 49.3971 13.6162C48.9547 14.0586 48.4307 14.2797 47.825 14.2797H47.248V20.7412C49.9692 21.0537 52.3586 21.6427 54.4162 22.5081C56.4739 23.3734 58.5196 24.6234 60.5533 26.2581L65.1471 21.6643L64.7143 21.2316C64.272 20.7892 64.0508 20.2712 64.0508 19.6776C64.0508 19.0838 64.272 18.5658 64.7143 18.1235C65.1807 17.6572 65.7143 17.424 66.3153 17.424C66.9162 17.424 67.4498 17.6572 67.9162 18.1235L71.8897 22.1547C72.3561 22.621 72.5892 23.1451 72.5892 23.7268C72.5892 24.3085 72.3561 24.8325 71.8897 25.2989C71.4234 25.7652 70.8958 25.9924 70.3069 25.9804C69.7179 25.9684 69.1903 25.7292 68.7239 25.2628L68.2912 24.8301L63.7551 29.3662C65.3898 31.3518 66.6458 33.4191 67.5232 35.5681C68.4005 37.7172 68.9835 40.1162 69.272 42.7652L75.7335 42.7652V42.1882C75.7335 41.5825 75.9547 41.0585 76.397 40.6162C76.8393 40.1738 77.3633 39.9527 77.9691 39.9527C78.5748 39.9527 79.0988 40.1738 79.5412 40.6162C79.9835 41.0585 80.2046 41.5825 80.2046 42.1882V47.8132C80.2046 48.419 79.9835 48.943 79.5412 49.3853C79.0988 49.8277 78.5748 50.0488 77.9691 50.0488C77.3633 50.0488 76.8393 49.8277 76.397 49.3853C75.9547 48.943 75.7335 48.419 75.7335 47.8132V47.2363L69.272 47.2363C68.9835 49.9094 68.4005 52.3084 67.5232 54.4334C66.6458 56.5584 65.3898 58.6137 63.7551 60.5992L68.2912 65.1353L68.7239 64.7026C69.1903 64.2363 69.7239 64.0091 70.3249 64.0211C70.9258 64.0331 71.4595 64.2603 71.9258 64.7026C72.3922 65.1449 72.6253 65.6786 72.6253 66.3036C72.6253 66.9286 72.3922 67.4742 71.9258 67.9405L67.9883 71.878C67.522 72.3443 66.9823 72.5775 66.3694 72.5775C65.7564 72.5775 65.2167 72.3443 64.7504 71.878C64.3081 71.4357 64.0966 70.9177 64.1158 70.3239C64.135 69.7303 64.3585 69.2002 64.7864 68.7338L65.1471 68.3372L60.5533 63.7434C58.7119 65.2819 56.7203 66.5174 54.5785 67.4501C52.4367 68.3828 49.9932 69.0054 47.248 69.3179L47.248 75.7218H47.825C48.4307 75.7218 48.9547 75.9429 49.3971 76.3852C49.8394 76.8276 50.0605 77.3516 50.0605 77.9573C50.0605 78.5631 49.8394 79.0871 49.3971 79.5294C48.9547 79.9717 48.4307 80.1929 47.825 80.1929H42.2ZM45.0125 63.7507C50.2 63.7507 54.6218 61.9226 58.2781 58.2664C61.9343 54.6101 63.7625 50.1882 63.7625 45.0007C63.7625 39.8132 61.9343 35.3914 58.2781 31.7351C54.6218 28.0789 50.2 26.2507 45.0125 26.2507C39.825 26.2507 35.4031 28.0789 31.7468 31.7351C28.0906 35.3914 26.2625 39.8132 26.2625 45.0007C26.2625 50.1882 28.0906 54.6101 31.7468 58.2664C35.4031 61.9226 39.825 63.7507 45.0125 63.7507ZM38.8105 59.2074C39.7288 59.2074 40.5113 58.8841 41.1579 58.2375C41.8046 57.5909 42.1279 56.8084 42.1279 55.8902C42.1279 54.9719 41.8046 54.1894 41.1579 53.5428C40.5113 52.8962 39.7288 52.5728 38.8105 52.5728C37.8923 52.5728 37.1098 52.8962 36.4632 53.5428C35.8166 54.1894 35.4933 54.9719 35.4933 55.8902C35.4933 56.8084 35.8166 57.5909 36.4632 58.2375C37.1098 58.8841 37.8923 59.2074 38.8105 59.2074ZM51.2144 59.2074C52.1327 59.2074 52.9151 58.8841 53.5617 58.2375C54.2083 57.5909 54.5317 56.8084 54.5317 55.8902C54.5317 54.9719 54.2083 54.1894 53.5617 53.5428C52.9151 52.8962 52.1327 52.5728 51.2144 52.5728C50.2961 52.5728 49.5136 52.8962 48.867 53.5428C48.2204 54.1894 47.8971 54.9719 47.8971 55.8902C47.8971 56.8084 48.2204 57.5909 48.867 58.2375C49.5136 58.8841 50.2961 59.2074 51.2144 59.2074ZM32.248 48.318C33.1663 48.318 33.9488 47.9947 34.5954 47.3481C35.2421 46.7014 35.5654 45.919 35.5654 45.0007C35.5654 44.0825 35.2421 43.3001 34.5954 42.6534C33.9488 42.0068 33.1663 41.6835 32.248 41.6835C31.3298 41.6835 30.5473 42.0068 29.9007 42.6534C29.2541 43.3001 28.9308 44.0825 28.9308 45.0007C28.9308 45.919 29.2541 46.7014 29.9007 47.3481C30.5473 47.9947 31.3298 48.318 32.248 48.318ZM45.0125 48.318C45.9307 48.318 46.7132 47.9947 47.3598 47.3481C48.0064 46.7014 48.3297 45.919 48.3297 45.0007C48.3297 44.0825 48.0064 43.3001 47.3598 42.6534C46.7132 42.0068 45.9307 41.6835 45.0125 41.6835C44.0942 41.6835 43.3118 42.0068 42.6652 42.6534C42.0185 43.3001 41.6952 44.0825 41.6952 45.0007C41.6952 45.919 42.0185 46.7014 42.6652 47.3481C43.3118 47.9947 44.0942 48.318 45.0125 48.318ZM57.7769 48.318C58.6952 48.318 59.4776 47.9947 60.1242 47.3481C60.7708 46.7014 61.0942 45.919 61.0942 45.0007C61.0942 44.0825 60.7708 43.3001 60.1242 42.6534C59.4776 42.0068 58.6952 41.6835 57.7769 41.6835C56.8586 41.6835 56.0761 42.0068 55.4295 42.6534C54.7829 43.3001 54.4596 44.0825 54.4596 45.0007C54.4596 45.919 54.7829 46.7014 55.4295 47.3481C56.0761 47.9947 56.8586 48.318 57.7769 48.318ZM38.8105 37.4287C39.7288 37.4287 40.5113 37.1053 41.1579 36.4587C41.8046 35.8121 42.1279 35.0296 42.1279 34.1113C42.1279 33.1931 41.8046 32.4106 41.1579 31.764C40.5113 31.1174 39.7288 30.7941 38.8105 30.7941C37.8923 30.7941 37.1098 31.1174 36.4632 31.764C35.8166 32.4106 35.4933 33.1931 35.4933 34.1113C35.4933 35.0296 35.8166 35.8121 36.4632 36.4587C37.1098 37.1053 37.8923 37.4287 38.8105 37.4287ZM51.2144 37.4287C52.1327 37.4287 52.9151 37.1053 53.5617 36.4587C54.2083 35.8121 54.5317 35.0296 54.5317 34.1113C54.5317 33.1931 54.2083 32.4106 53.5617 31.764C52.9151 31.1174 52.1327 30.7941 51.2144 30.7941C50.2961 30.7941 49.5136 31.1174 48.867 31.764C48.2204 32.4106 47.8971 33.1931 47.8971 34.1113C47.8971 35.0296 48.2204 35.8121 48.867 36.4587C49.5136 37.1053 50.2961 37.4287 51.2144 37.4287Z"
      fill="url(#paint0_linear_2898_95606)"/>
  </g>
  <defs>
    <linearGradient id="paint0_linear_2898_95606" x1="45.0125" y1="9.80859" x2="45.0125" y2="80.1929"
                    gradientUnits="userSpaceOnUse">
      <stop stop-color="#DB9DEE"/>
      <stop offset="1" stop-color="#6F81B4"/>
    </linearGradient>
  </defs>
</svg>
