<svg xmlns="http://www.w3.org/2000/svg" width="109" height="109" fill="none">
  <rect width="109" height="109" fill="#FF0D00" opacity=".3" rx="24"/>
  <path fill="#FF392E" fill-rule="evenodd"
        d="M42.378 39.085c-.547.221-.62.662-.25 1.518 1.63 3.77.563 7.645-3.14 11.397-.62.628-.812.911-.975 1.432-.342 1.095.259 2.596 1.471 3.677.404.36 1.218.918 1.339.918.025 0 .07-.384.099-.854.147-2.427 1.29-4.324 3.52-5.843.384-.262 2.096-1.149 2.217-1.149.023 0-.055.282-.174.627-.587 1.696-.66 3.499-.19 4.704.212.545.605 1.16.928 1.451l.24.217.643-.566c1.495-1.317 2.564-3.21 2.875-5.093.206-1.249.06-3.072-.361-4.515-.891-3.052-3.357-5.783-6.851-7.589-.888-.459-1.008-.487-1.391-.332Zm27.755 1.453c-.405.178-.926.714-1.029 1.058-.197.66-.075 1.19.408 1.779.448.546.607 1.026.611 1.849.004.765-.114 1.296-.457 2.06-.108.24-.214.49-.236.554-.029.087.123.22.561.493.68.425 1.524 1.196 1.93 1.764.327.459.287.487.906-.653 1.003-1.85 1.379-3.74 1.066-5.36-.298-1.54-1.087-2.901-1.998-3.444-.418-.25-1.308-.3-1.762-.1Zm-6.362 8.886a8.66 8.66 0 0 0-2.395.691c-1.511.656-2.341 1.328-3.694 2.992-4.107 5.054-8.61 8.084-13.673 9.202-1.513.333-2.591.437-4.956.474-1.243.02-2.389.065-2.545.102-.587.14-.649.382-.272 1.066.819 1.485 3.808 3.238 7.05 4.135 1.21.335 2.222.537 3.93.786.295.043 1.398.096 2.452.118 2.058.043 3.444-.05 5.097-.343 3.898-.69 7.571-2.279 10.846-4.692.836-.616 2.466-2.03 2.99-2.593.91-.979 1.636-2.313 2.03-3.733 1.11-3.989-.464-7.265-3.887-8.097-.765-.186-2.144-.236-2.973-.108Z"
        clip-rule="evenodd"/>
</svg>
