<svg width="109" height="109" viewBox="0 0 109 109" fill="none" xmlns="http://www.w3.org/2000/svg">
  <rect x="0.5" y="0.5" width="108" height="108" rx="23.5" stroke="#43D068"/>
  <path
    d="M45.1025 60.961C45.0865 61.2249 45.0463 61.5043 44.982 61.7993C44.9339 62.0942 44.7813 62.3348 44.5243 62.5211C44.3315 62.6764 44.1147 62.7695 43.8737 62.8006C43.6328 62.8316 43.3918 62.8161 43.1509 62.754C42.926 62.7074 42.7091 62.6298 42.5003 62.5211C42.2915 62.3969 42.1228 62.2495 41.9943 62.0787C41.4482 61.4267 40.9422 60.7592 40.4764 60.0761C40.0266 59.3776 39.5688 58.679 39.103 57.9804L37.0791 55.0232C36.806 54.604 36.5169 54.1383 36.2117 53.626C35.9065 53.0982 35.5933 52.6092 35.272 52.159L35.1997 61.0541V61.2637C35.1997 61.5121 35.1515 61.7605 35.0552 62.0088C34.9749 62.2417 34.8303 62.4435 34.6215 62.6143C34.4608 62.7385 34.252 62.8238 33.995 62.8704C33.5934 62.948 33.2561 62.9247 32.9831 62.8006C32.726 62.6764 32.5172 62.5056 32.3566 62.2883C32.212 62.0709 32.1076 61.8226 32.0434 61.5431C31.9952 61.2482 31.9871 60.961 32.0193 60.6816V60.2857L32.0675 58.4694L32.0916 55.093C32.1076 54.5963 32.1157 54.0917 32.1157 53.5795C32.1157 53.0517 32.1157 52.5161 32.1157 51.9728C32.0996 51.3052 32.0996 50.5989 32.1157 49.8538C32.1478 49.1086 32.1799 48.4101 32.212 47.7581C32.2442 47.401 32.3325 47.0983 32.4771 46.8499C32.5413 46.6326 32.71 46.4463 32.9831 46.2911C33.1597 46.1824 33.3846 46.1125 33.6577 46.0815C33.9468 46.0505 34.1958 46.0582 34.4046 46.1048C34.4849 46.1358 34.5652 46.1746 34.6456 46.2212C34.7259 46.2523 34.8062 46.2911 34.8865 46.3376C34.9668 46.3997 35.0391 46.4618 35.1034 46.5239C35.1837 46.586 35.256 46.6559 35.3202 46.7335C35.4005 46.8111 35.4728 46.8965 35.5371 46.9896C35.6013 47.0673 35.6656 47.1449 35.7298 47.2225C35.778 47.3156 35.8262 47.401 35.8744 47.4786C35.9226 47.5563 35.9788 47.6339 36.043 47.7115L36.3081 48.0841L41.8739 56.56V55.0232C41.8739 54.5264 41.8658 54.0219 41.8498 53.5096C41.8498 52.9818 41.8417 52.4385 41.8257 51.8796C41.8257 51.2276 41.8257 50.529 41.8257 49.7839C41.8417 49.0388 41.8658 48.3402 41.898 47.6882C41.898 47.4243 41.9783 47.1216 42.1389 46.7801C42.2192 46.5783 42.3558 46.4153 42.5485 46.2911C42.7413 46.1669 42.9581 46.0815 43.1991 46.0349C43.44 45.9884 43.681 45.9884 43.9219 46.0349C44.1628 46.0815 44.3717 46.1746 44.5484 46.3144C44.5965 46.3609 44.6447 46.4153 44.6929 46.4774C44.7411 46.5394 44.7813 46.6093 44.8134 46.6869C44.8937 46.8887 44.9419 47.0673 44.958 47.2225C45.0061 47.4398 45.0302 47.6339 45.0302 47.8046C45.0302 49.7451 45.0302 51.7244 45.0302 53.7425C45.0463 55.7605 45.0624 57.7398 45.0784 59.6803C45.0784 59.8976 45.0865 60.115 45.1025 60.3323C45.1186 60.5341 45.1186 60.7437 45.1025 60.961Z"
    fill="#43D068"/>
  <path
    d="M50.8257 49.0388L50.7775 52.6946H51.7413C52.3999 52.6791 52.9861 52.6713 53.5002 52.6713C54.0142 52.6713 54.5844 52.6791 55.2109 52.6946H55.3313C55.5241 52.6946 55.7088 52.7024 55.8855 52.7179C56.0783 52.7179 56.263 52.7179 56.4397 52.7179C56.6324 52.7334 56.8172 52.7645 56.9938 52.811C57.1705 52.8421 57.3472 52.8809 57.5239 52.9275C57.797 53.0206 58.0219 53.1603 58.1986 53.3466C58.3592 53.5484 58.4395 53.7735 58.4395 54.0219C58.4395 54.0995 58.4395 54.1926 58.4395 54.3013C58.4395 54.3945 58.4234 54.4798 58.3913 54.5575C58.3592 54.7282 58.2548 54.8835 58.0781 55.0232C57.9978 55.1318 57.8452 55.2095 57.6203 55.256C57.4115 55.3181 57.2027 55.3569 56.9938 55.3725C56.769 55.419 56.5441 55.4423 56.3192 55.4423H55.1868L50.7293 55.4656L50.6811 60.0296L55.4759 60.0761H56.6083C56.7368 60.0761 56.8573 60.0761 56.9698 60.0761C57.0822 60.0761 57.1866 60.0839 57.283 60.0994C57.4115 60.1305 57.5239 60.1538 57.6203 60.1693C57.7327 60.1693 57.8372 60.1848 57.9335 60.2159C58.1263 60.2779 58.2869 60.3633 58.4154 60.472C58.576 60.6272 58.6805 60.7902 58.7286 60.961C58.7447 61.0386 58.7527 61.124 58.7527 61.2171C58.7688 61.2948 58.7688 61.3801 58.7527 61.4733C58.7527 61.7217 58.6724 61.9467 58.5118 62.1486C58.319 62.3659 58.0942 62.5056 57.8372 62.5677C57.4998 62.7074 57.1304 62.7773 56.7288 62.7773C56.5521 62.7928 56.3674 62.8006 56.1746 62.8006C55.9819 62.8006 55.7972 62.8083 55.6205 62.8238H55.4759C54.223 62.8549 52.9219 62.8549 51.5726 62.8238C51.2514 62.8238 50.9943 62.8161 50.8016 62.8006C50.6088 62.8006 50.4321 62.8006 50.2715 62.8006C50.1269 62.8006 49.9744 62.8006 49.8137 62.8006C49.6531 62.8006 49.4443 62.8006 49.1873 62.8006C48.8178 62.8316 48.5126 62.7695 48.2717 62.6143C48.095 62.5056 47.9585 62.3581 47.8621 62.1718C47.8139 62.1253 47.7898 62.0787 47.7898 62.0321C47.7737 62.0011 47.7577 61.9778 47.7416 61.9623C47.7255 61.9467 47.7095 61.9235 47.6934 61.8924C47.6613 61.8148 47.6372 61.7372 47.6211 61.6596C47.6051 61.5664 47.597 61.481 47.597 61.4034C47.581 61.3258 47.5649 61.2482 47.5489 61.1706C47.5489 61.0929 47.5408 61.0153 47.5248 60.9377V60.5651C47.5248 60.503 47.5248 60.4409 47.5248 60.3789C47.5408 60.3168 47.5489 60.2547 47.5489 60.1926V58.3763L47.597 55.0232V51.9262C47.597 51.3673 47.597 50.8706 47.597 50.4359C47.6131 50.0012 47.6292 49.5278 47.6452 49.0155V48.8991C47.6613 48.7283 47.6693 48.5731 47.6693 48.4333C47.6854 48.2781 47.6934 48.1229 47.6934 47.9676C47.7095 47.6572 47.7978 47.3544 47.9585 47.0595C48.0227 46.9353 48.087 46.8266 48.1512 46.7335C48.2315 46.6404 48.3359 46.5627 48.4644 46.5006C48.7054 46.3609 48.9544 46.2911 49.2114 46.2911C49.3399 46.2911 49.4362 46.2988 49.5005 46.3144V46.2911C49.7896 46.2911 50.0225 46.2911 50.1992 46.2911C50.3759 46.2911 50.5446 46.2911 50.7052 46.2911C50.8819 46.2911 51.0666 46.2911 51.2594 46.2911C51.4521 46.2755 51.7172 46.2678 52.0545 46.2678C52.697 46.2523 53.3074 46.2445 53.8857 46.2445C54.4639 46.2445 55.0583 46.2523 55.6687 46.2678H55.765C55.9417 46.2833 56.1264 46.2911 56.3192 46.2911C56.512 46.2911 56.6967 46.2988 56.8734 46.3144C57.0501 46.3144 57.2268 46.3376 57.4035 46.3842C57.5801 46.4153 57.7568 46.4618 57.9335 46.5239C58.2066 46.6015 58.4315 46.7335 58.6082 46.9198C58.7527 47.1371 58.825 47.3544 58.825 47.5718C58.825 47.6649 58.825 47.7581 58.825 47.8512C58.825 47.9288 58.809 48.0064 58.7768 48.0841C58.7608 48.2393 58.6644 48.4023 58.4877 48.5731C58.4234 48.6041 58.3512 48.6429 58.2708 48.6895C58.2066 48.7361 58.1263 48.7749 58.0299 48.8059C57.9335 48.837 57.8291 48.8602 57.7167 48.8758C57.6203 48.8758 57.5239 48.8835 57.4275 48.8991C57.299 48.9301 57.1786 48.9456 57.0661 48.9456C56.9698 48.9456 56.8573 48.9456 56.7288 48.9456H55.6446L50.8257 48.9689V49.0388Z"
    fill="#43D068"/>
  <path
    d="M77.9518 47.1759C78.0161 47.4709 78.0161 47.7813 77.9518 48.1073C77.9197 48.2626 77.8876 48.4178 77.8554 48.5731C77.8394 48.7128 77.8153 48.8602 77.7831 49.0155L77.7591 49.1086C77.5342 50.0711 77.2772 51.0879 76.988 52.159C76.715 53.2147 76.466 54.2159 76.2411 55.1629C76.0484 55.9391 75.8476 56.7929 75.6388 57.7243C75.4299 58.6557 75.2131 59.5095 74.9882 60.2857C74.9079 60.5496 74.8195 60.8135 74.7232 61.0774C74.6428 61.3413 74.5384 61.6052 74.4099 61.8691C74.2975 62.102 74.161 62.3116 74.0003 62.4978C73.8558 62.6686 73.6871 62.7928 73.4944 62.8704C73.3016 62.9636 73.0928 62.9946 72.8679 62.9636C72.6591 62.948 72.4262 62.8549 72.1692 62.6841C71.7836 62.4202 71.4945 62.0554 71.3018 61.5897C71.1251 61.124 70.9403 60.6971 70.7476 60.309C70.6833 60.2003 70.587 59.9597 70.4585 59.5871C70.33 59.2146 70.1934 58.811 70.0489 58.3763C69.9043 57.9261 69.7597 57.4992 69.6152 57.0956C69.4867 56.6764 69.3742 56.366 69.2778 56.1642C69.1333 56.5057 68.9887 56.8938 68.8441 57.3284C68.6996 57.7631 68.563 58.19 68.4345 58.6091C68.306 59.0283 68.1856 59.4086 68.0731 59.7501C67.9767 60.0761 67.9045 60.3168 67.8563 60.472C67.7278 60.7825 67.5832 61.124 67.4226 61.4966C67.278 61.8691 67.0933 62.1874 66.8684 62.4513C66.6596 62.7152 66.4026 62.8859 66.0974 62.9636C65.7922 63.0567 65.4308 62.9713 65.0131 62.7074C64.6919 62.5211 64.467 62.2572 64.3385 61.9157C64.2582 61.6984 64.1779 61.4888 64.0975 61.287C64.0172 61.0852 63.953 60.8756 63.9048 60.6583L63.4229 58.9119L62.435 55.1629C62.3065 54.6816 62.178 54.1926 62.0495 53.6959C61.9371 53.1836 61.8005 52.6558 61.6399 52.1125C61.5596 51.8486 61.4873 51.5924 61.4231 51.344C61.3749 51.0801 61.3187 50.8007 61.2544 50.5058C61.2062 50.1953 61.142 49.846 61.0617 49.4579C60.9974 49.0698 60.9171 48.6196 60.8207 48.1073C60.7886 47.9366 60.7645 47.7813 60.7484 47.6416C60.7484 47.4864 60.7645 47.3312 60.7966 47.1759C60.8287 46.9431 60.9412 46.7413 61.1339 46.5705C61.2143 46.4929 61.3106 46.4308 61.4231 46.3842C61.5355 46.3376 61.656 46.2988 61.7845 46.2678C61.9772 46.2057 62.178 46.1746 62.3868 46.1746C62.5796 46.1746 62.7804 46.2367 62.9892 46.3609C63.1338 46.4385 63.2462 46.5394 63.3265 46.6636L63.6157 47.1526C63.6478 47.2613 63.6799 47.3622 63.712 47.4553C63.7442 47.533 63.7763 47.6183 63.8084 47.7115C63.8405 47.8202 63.8646 47.9211 63.8807 48.0142C63.8968 48.0918 63.9128 48.1694 63.9289 48.2471C64.0735 49.0543 64.2501 49.8382 64.459 50.5989C64.6678 51.3596 64.8605 52.0892 65.0372 52.7877C65.1015 53.0672 65.1818 53.4165 65.2782 53.8356C65.3745 54.2392 65.4709 54.6661 65.5673 55.1163C65.6637 55.551 65.7601 55.9701 65.8564 56.3737C65.9528 56.7773 66.0492 57.0956 66.1456 57.3284C66.3544 56.6299 66.5632 55.9313 66.772 55.2327C66.9969 54.5342 67.2378 53.8278 67.4949 53.1137C67.6234 52.7412 67.7519 52.4074 67.8804 52.1125C68.0249 51.802 68.1856 51.5459 68.3622 51.344C68.5389 51.1422 68.7397 51.0103 68.9646 50.9482C69.1895 50.8861 69.4545 50.9094 69.7597 51.018C70.0328 51.1267 70.2737 51.3596 70.4826 51.7166C70.6914 52.0737 70.8761 52.4385 71.0367 52.811C71.1813 53.1526 71.3178 53.5174 71.4463 53.9055C71.5909 54.278 71.7274 54.6506 71.8559 55.0232C72.0005 55.3802 72.137 55.7217 72.2655 56.0477C72.394 56.3737 72.5225 56.6532 72.651 56.886C72.6992 56.7153 72.7555 56.4979 72.8197 56.234C72.884 55.9701 72.9482 55.6907 73.0125 55.3957C73.0928 55.0853 73.1651 54.7825 73.2293 54.4876C73.2936 54.1926 73.3578 53.921 73.4221 53.6726C73.6309 52.8343 73.8477 51.996 74.0726 51.1578C74.2975 50.304 74.5143 49.4657 74.7232 48.6429L74.8436 48.2471C74.8758 48.1694 74.8918 48.0918 74.8918 48.0142C74.9079 47.9211 74.932 47.8202 74.9641 47.7115C74.9962 47.6183 75.0284 47.533 75.0605 47.4553C75.0926 47.3622 75.1247 47.2613 75.1569 47.1526C75.189 47.075 75.2211 46.9974 75.2532 46.9198C75.3014 46.8266 75.3577 46.7413 75.4219 46.6636C75.4701 46.586 75.5263 46.5239 75.5906 46.4774C75.6548 46.4308 75.7191 46.392 75.7833 46.3609C76.0082 46.2367 76.201 46.1746 76.3616 46.1746C76.5704 46.1746 76.7712 46.2057 76.9639 46.2678C77.2209 46.3144 77.4539 46.4153 77.6627 46.5705C77.8233 46.7257 77.9197 46.9275 77.9518 47.1759Z"
    fill="#43D068"/>
  <path opacity="0.4"
        d="M99 19.9998C99 25.5238 94.523 29.9998 89 29.9998C83.477 29.9998 79 25.5238 79 19.9998C79 14.4778 83.477 9.99976 89 9.99976C94.523 9.99976 99 14.4778 99 19.9998Z"
        fill="#43D068"/>
  <path
    d="M88.2485 23.4965C88.0245 23.4965 87.8005 23.4115 87.6295 23.2405L85.2565 20.8675C84.9145 20.5255 84.9145 19.9715 85.2565 19.6305C85.5985 19.2885 86.1515 19.2875 86.4935 19.6295L88.2485 21.3845L92.3765 17.2565C92.7185 16.9145 93.2715 16.9145 93.6135 17.2565C93.9555 17.5985 93.9555 18.1525 93.6135 18.4945L88.8675 23.2405C88.6965 23.4115 88.4725 23.4965 88.2485 23.4965Z"
    fill="#43D068"/>
</svg>
