<svg xmlns="http://www.w3.org/2000/svg" width="109" height="109" fill="none">
  <rect width="108" height="108" x=".5" y=".5" stroke="#FF6523" rx="23.5"/>
  <path fill="#FF6523"
        d="M50.954 47.18c.015.103.022.2.022.288V48.648l-.136 11.547v.223c0 .089-.022.222-.068.4a2.032 2.032 0 0 1-.067.245c-.03.074-.061.156-.091.245a.865.865 0 0 1-.317.4c-.121.119-.318.2-.59.245-.423.089-.808.052-1.155-.111a.962.962 0 0 1-.408-.445.516.516 0 0 1-.09-.134.337.337 0 0 0-.046-.133 1.254 1.254 0 0 1-.068-.223l-.045-.267c0-.074-.008-.148-.023-.222 0-.075-.008-.149-.023-.223a.506.506 0 0 1-.045-.178v-.2c.03-.06.045-.17.045-.334l.023-1.758.023-2.803H46.67l-4.6.022-.046 5.251v.223c0 .089-.022.222-.068.4a2.032 2.032 0 0 1-.068.245 4.44 4.44 0 0 0-.09.245.866.866 0 0 1-.318.4c-.12.119-.317.2-.589.245-.423.089-.808.052-1.156-.111-.15-.09-.294-.238-.43-.445a.337.337 0 0 1-.045-.134l-.068-.133a1.254 1.254 0 0 1-.068-.223l-.046-.267c0-.074-.007-.148-.022-.222l-.046-.223a1.584 1.584 0 0 1 0-.378v-.334l.068-5.028c.015-.475.023-.964.023-1.469V51.43a50.997 50.997 0 0 1-.023-1.424c.015-.415.038-.883.068-1.402v-.089c.015-.148.023-.297.023-.445 0-.163.008-.326.023-.49.015-.148.037-.288.068-.422.045-.148.105-.297.18-.445a.796.796 0 0 1 .182-.29c.076-.088.166-.17.272-.244.242-.119.484-.178.725-.178.121 0 .227.007.318.022.09 0 .18.008.271.023.182.014.355.103.522.267.12.103.204.222.249.355.076.193.12.364.136.512.015.104.023.2.023.29v1.179l-.046 3.67h.408c.166 0 .355-.007.567-.021.785 0 1.563.007 2.334.022.785.015 1.609.022 2.47.022h.023v-1.913c.015-.608.037-1.246.067-1.914v-.445l.046-.49c.015-.148.038-.288.068-.422.045-.148.105-.297.181-.445a.604.604 0 0 1 .159-.29c.09-.088.196-.17.317-.244a1.41 1.41 0 0 1 .703-.178c.12 0 .226.007.317.022.105 0 .196.008.272.023.211.03.385.118.52.267.122.074.205.192.25.355.03.09.053.178.068.267.03.075.06.156.09.245ZM53.5 59.483l.023-1.758.023-3.27c.015-.475.022-.964.022-1.469v-2.981c0-.415.015-.883.046-1.402v-.089c.015-.148.022-.297.022-.445a5.31 5.31 0 0 0 .023-.49c.015-.266.098-.556.25-.867a1.46 1.46 0 0 1 .475-.534 1.59 1.59 0 0 1 .703-.178c.12 0 .226.007.317.022.106 0 .204.008.294.023.197.03.37.118.522.267.09.074.173.192.249.355.03.09.053.178.068.267.03.075.053.156.068.245.015.104.023.2.023.29a1.731 1.731 0 0 1 0 .556v.623l-.136 11.547v.223a.942.942 0 0 1-.023.178c0 .059-.008.133-.023.222a4.38 4.38 0 0 0-.09.245 2.022 2.022 0 0 1-.068.245 2.016 2.016 0 0 1-.159.222c-.045.06-.106.119-.181.178-.121.119-.318.2-.59.245a1.807 1.807 0 0 1-1.155-.111.994.994 0 0 1-.386-.445c-.045-.045-.067-.09-.067-.134a.255.255 0 0 0-.046-.067.259.259 0 0 1-.045-.066 1.254 1.254 0 0 1-.068-.223 1.593 1.593 0 0 1-.023-.267l-.045-.222c0-.075-.008-.149-.023-.223a1.584 1.584 0 0 1 0-.378v-.334ZM70.75 46.779c.167.193.25.393.25.6 0 .09-.008.186-.023.29 0 .089-.007.17-.022.245a1.059 1.059 0 0 1-.295.467c-.12.089-.287.155-.498.2-.106.03-.212.052-.318.067-.105.014-.219.037-.34.066a2.272 2.272 0 0 1-.317.023h-1.495c-.272.014-.544.022-.816.022h-.77c.014.46.022.957.022 1.49 0 .52-.008 1.128-.023 1.825 0 .697-.007 1.506-.023 2.425V59.394c0 .148.008.26.023.334v.178a.941.941 0 0 1-.023.178c-.03.133-.052.29-.067.467 0 .074-.008.148-.023.223-.015.059-.038.126-.068.2-.06.06-.09.104-.09.133l-.069.134c-.075.148-.219.29-.43.423-.333.163-.703.2-1.11.11-.257-.029-.454-.096-.59-.2a1.363 1.363 0 0 1-.294-.4 1.225 1.225 0 0 1-.16-.467 1.307 1.307 0 0 1-.067-.423V48.848h-1.496l-.906-.045a8.015 8.015 0 0 1-.59-.044l-.43-.067a6.044 6.044 0 0 1-.453-.089c-.317-.089-.567-.23-.748-.423a.964.964 0 0 1-.25-.645v-.267c0-.089.016-.17.046-.245.045-.178.166-.326.363-.445.06-.044.15-.096.272-.155.136-.074.264-.126.385-.156a3.42 3.42 0 0 1 .68-.134 2.98 2.98 0 0 1 .362-.022H62.23c.484 0 .99-.007 1.518-.022a76.488 76.488 0 0 1 2.607 0c.876 0 1.744.015 2.605.044.197.015.386.038.567.067.181.03.363.082.544.156.136.044.264.104.385.178.121.06.22.14.295.245Z"/>
  <path fill="#FF6523" d="M99 20c0 5.524-4.477 10-10 10s-10-4.476-10-10c0-5.522 4.477-10 10-10s10 4.478 10 10Z"
        opacity=".4"/>
  <path fill="#FF6523"
        d="M88.249 23.497a.872.872 0 0 1-.62-.256l-2.373-2.373a.874.874 0 1 1 1.237-1.238l1.756 1.755 4.127-4.129a.874.874 0 1 1 1.237 1.238l-4.745 4.747a.872.872 0 0 1-.62.256Z"/>
</svg>
