<svg width="91" height="91" viewBox="0 0 91 91" fill="none" xmlns="http://www.w3.org/2000/svg">
<path d="M45.4756 44.9658C47.3416 44.9658 48.9368 44.3014 50.2613 42.9726C51.5858 41.6439 52.248 40.0465 52.248 38.1806C52.248 36.3147 51.5837 34.7195 50.2549 33.395C48.9262 32.0705 47.3288 31.4082 45.4629 31.4082C43.5969 31.4082 42.0017 32.0726 40.6772 33.4013C39.3527 34.7301 38.6905 36.3274 38.6905 38.1934C38.6905 40.0593 39.3548 41.6545 40.6836 42.979C42.0123 44.3035 43.6097 44.9658 45.4756 44.9658ZM45.4693 73.6461C52.8058 67.0789 58.4199 60.7796 62.3118 54.7483C66.2036 48.717 68.1495 43.4346 68.1495 38.9009C68.1495 32.0644 65.9777 26.4442 61.6339 22.0403C57.2902 17.6365 51.9019 15.4345 45.4693 15.4345C39.0366 15.4345 33.6483 17.6365 29.3046 22.0403C24.9608 26.4442 22.789 32.0644 22.789 38.9009C22.789 43.4346 24.7349 48.717 28.6267 54.7483C32.5186 60.7796 38.1328 67.0789 45.4693 73.6461ZM45.4693 81.1315C36.0318 72.9536 28.9549 65.3431 24.2385 58.2999C19.5222 51.2567 17.1641 44.7903 17.1641 38.9009C17.1641 30.2471 19.9633 23.2412 25.5619 17.883C31.1604 12.5248 37.7962 9.8457 45.4693 9.8457C53.1423 9.8457 59.7781 12.5248 65.3766 17.883C70.9752 23.2412 73.7744 30.2471 73.7744 38.9009C73.7744 44.7903 71.4163 51.2567 66.7 58.2999C61.9836 65.3431 54.9067 72.9536 45.4693 81.1315Z" fill="url(#paint0_linear_4822_127492)"/>
<defs>
<linearGradient id="paint0_linear_4822_127492" x1="45.4693" y1="9.8457" x2="45.4693" y2="81.1315" gradientUnits="userSpaceOnUse">
<stop stop-color="#DB9DEE"/>
<stop offset="1" stop-color="#6F81B4"/>
</linearGradient>
</defs>
</svg>
