<svg width="90" height="90" viewBox="0 0 90 90" fill="none" xmlns="http://www.w3.org/2000/svg">
<mask id="mask0_4822_127499" style="mask-type:alpha" maskUnits="userSpaceOnUse" x="0" y="0" width="90" height="90">
<rect width="90" height="90" fill="#D9D9D9"/>
</mask>
<g mask="url(#mask0_4822_127499)">
<path d="M44.9999 76.2257L40.8606 72.5047C34.6443 66.8652 29.5036 62.0191 25.4387 57.9662C21.3738 53.9133 18.1527 50.3063 15.7753 47.1453C13.3979 43.9842 11.7368 41.1008 10.7921 38.4951C9.84737 35.8893 9.375 33.2451 9.375 30.5624C9.375 25.2403 11.1695 20.7848 14.7584 17.1959C18.3473 13.607 22.8028 11.8125 28.1249 11.8125C31.399 11.8125 34.4927 12.5782 37.4062 14.1095C40.3196 15.6407 42.8508 17.8366 44.9999 20.6972C47.149 17.8366 49.6802 15.6407 52.5937 14.1095C55.5071 12.5782 58.6009 11.8125 61.8749 11.8125C67.197 11.8125 71.6525 13.607 75.2414 17.1959C78.8304 20.7848 80.6248 25.2403 80.6248 30.5624C80.6248 33.2451 80.1524 35.8893 79.2077 38.4951C78.263 41.1008 76.6019 43.9842 74.2245 47.1453C71.8471 50.3063 68.632 53.9133 64.5791 57.9662C60.5263 62.0191 55.3796 66.8652 49.1393 72.5047L44.9999 76.2257ZM44.9999 68.6249C50.9999 63.2258 55.9374 58.5984 59.8124 54.7427C63.6874 50.8869 66.7499 47.5372 68.9999 44.6934C71.2499 41.8497 72.8124 39.3244 73.6874 37.1177C74.5624 34.9109 74.9999 32.7258 74.9999 30.5624C74.9999 26.8124 73.7499 23.6874 71.2499 21.1874C68.7499 18.6874 65.6249 17.4374 61.8749 17.4374C58.9134 17.4374 56.1766 18.2776 53.6646 19.9579C51.1526 21.6381 49.1634 23.9759 47.697 26.9711H42.3028C40.8124 23.9519 38.8173 21.6081 36.3173 19.9398C33.8173 18.2715 31.0865 17.4374 28.1249 17.4374C24.399 17.4374 21.28 18.6874 18.7679 21.1874C16.2559 23.6874 14.9999 26.8124 14.9999 30.5624C14.9999 32.7258 15.4374 34.9109 16.3124 37.1177C17.1874 39.3244 18.7499 41.8497 20.9999 44.6934C23.2499 47.5372 26.3124 50.8809 30.1874 54.7247C34.0624 58.5684 38.9999 63.2018 44.9999 68.6249Z" fill="url(#paint0_linear_4822_127499)"/>
</g>
<defs>
<linearGradient id="paint0_linear_4822_127499" x1="44.9999" y1="11.8125" x2="44.9999" y2="76.2257" gradientUnits="userSpaceOnUse">
<stop stop-color="#DB9DEE"/>
<stop offset="1" stop-color="#6F81B4"/>
</linearGradient>
</defs>
</svg>
