<svg aria-hidden="true" style="position:absolute;width:0;height:0" width="24" height="24"
     xmlns="http://www.w3.org/2000/svg" overflow="hidden">

  <symbol id="2025-02-14" viewBox="0 0 232 182" fill="none">
    <path
      d="M92.4222 13.5321C68.9853 -6.62783 33.6394 -3.95542 13.5001 19.4992C-6.61428 42.9247 -3.94589 78.2172 19.462 98.3521L114.819 180.376L115.568 181.248L115.7 181.134L115.833 181.248L116.581 180.376L211.939 98.3521C235.346 78.2172 238.015 42.9247 217.9 19.4992C197.761 -3.95542 162.415 -6.62783 138.978 13.5321L115.7 33.5553L92.4222 13.5321Z"
      fill="white"/>
  </symbol>

  <symbol id="2025-02-15" viewBox="0 0 124 121" fill="none">
    <path
      d="M29.0245 15.3177C26.6651 13.4434 25.4057 10.3514 26.0202 7.189C26.8989 2.66634 31.2777 -0.287611 35.8003 0.591166C38.9627 1.20563 41.3581 3.5313 42.2125 6.42085C44.0869 4.06151 47.1789 2.80207 50.3412 3.41654C53.5036 4.031 55.899 6.35667 56.7534 9.24622C58.6278 6.88688 61.7198 5.62745 64.8821 6.24191C68.0445 6.85638 70.4399 9.18204 71.2943 12.0716C73.1687 9.71225 76.2607 8.45282 79.423 9.06728C82.5854 9.68175 84.9808 12.0074 85.8353 14.897C87.7096 12.5376 90.8016 11.2782 93.9639 11.8927C97.1263 12.5071 99.5217 14.8328 100.376 17.7223C102.25 15.363 105.342 14.1036 108.505 14.718C111.667 15.3325 114.063 17.6582 114.917 20.5477C116.791 18.1884 119.883 16.9289 123.046 17.5434C126.208 18.1579 128.604 20.4835 129.458 23.3731C131.332 21.0137 134.424 19.7543 137.587 20.3688C140.749 20.9832 143.144 23.3089 143.999 26.1985C145.873 23.8391 148.965 22.5797 152.128 23.1941C155.29 23.8086 157.685 26.1343 158.54 29.0238C160.414 26.6645 163.506 25.4051 166.668 26.0195C171.191 26.8983 174.145 31.277 173.266 35.7997C172.652 38.9621 170.326 41.3575 167.437 42.2119C169.796 44.0862 171.055 47.1782 170.441 50.3406C169.826 53.503 167.501 55.8984 164.611 56.7528C166.971 58.6271 168.23 61.7191 167.616 64.8815C167.001 68.0439 164.675 70.4393 161.786 71.2937C164.145 73.168 165.405 76.26 164.79 79.4224C164.176 82.5848 161.85 84.9802 158.961 85.8346C161.32 87.7089 162.579 90.8009 161.965 93.9633C161.35 97.1257 159.025 99.5211 156.135 100.376C158.494 102.25 159.754 105.342 159.139 108.504C158.525 111.667 156.199 114.062 153.31 114.916C155.669 116.791 156.929 119.883 156.314 123.045C155.7 126.207 153.374 128.603 150.484 129.457C152.844 131.332 154.103 134.424 153.489 137.586C152.874 140.748 150.549 143.144 147.659 143.998C150.018 145.873 151.278 148.965 150.663 152.127C150.049 155.289 147.723 157.685 144.834 158.539C147.193 160.413 148.452 163.505 147.838 166.668C146.959 171.19 142.58 174.144 138.058 173.266C134.895 172.651 132.5 170.326 131.646 167.436C129.771 169.795 126.679 171.055 123.517 170.44C120.355 169.826 117.959 167.5 117.105 164.611C115.23 166.97 112.138 168.229 108.976 167.615C105.814 167 103.418 164.675 102.564 161.785C100.689 164.145 97.5975 165.404 94.4351 164.79C91.2727 164.175 88.8773 161.849 88.0229 158.96C86.1485 161.319 83.0565 162.579 79.8942 161.964C76.7318 161.35 74.3364 159.024 73.482 156.134C71.6076 158.494 68.5156 159.753 65.3533 159.139C62.1909 158.524 59.7955 156.199 58.9411 153.309C57.0667 155.668 53.9747 156.928 50.8124 156.313C47.65 155.699 45.2546 153.373 44.4002 150.484C42.5258 152.843 39.4338 154.103 36.2715 153.488C33.1091 152.874 30.7137 150.548 29.8592 147.658C27.9849 150.018 24.8929 151.277 21.7306 150.663C18.5682 150.048 16.1728 147.723 15.3183 144.833C13.444 147.192 10.352 148.452 7.18965 147.837C2.66698 146.959 -0.286971 142.58 0.591807 138.057C1.20627 134.895 3.53194 132.499 6.4215 131.645C4.06215 129.771 2.80272 126.679 3.41718 123.516C4.03165 120.354 6.35731 117.958 9.24686 117.104C6.88752 115.23 5.62809 112.138 6.24255 108.975C6.85702 105.813 9.18268 103.418 12.0722 102.563C9.71289 100.689 8.45346 97.5968 9.06793 94.4344C9.68239 91.2721 12.0081 88.8766 14.8976 88.0222C12.5383 86.1479 11.2788 83.0559 11.8933 79.8935C12.5078 76.7311 14.8334 74.3358 17.723 73.4813C15.3636 71.607 14.1042 68.515 14.7187 65.3526C15.3331 62.1902 17.6588 59.7948 20.5484 58.9404C18.189 57.0661 16.9296 53.9741 17.544 50.8117C18.1585 47.6493 20.4842 45.2539 23.3737 44.3995C21.0144 42.5252 19.755 39.4332 20.3694 36.2708C20.9839 33.1084 23.3095 30.713 26.1991 29.8586C23.8398 27.9843 22.5803 24.8923 23.1948 21.7299C23.8093 18.5675 26.1349 16.1721 29.0245 15.3177Z"
      fill="white"/>
  </symbol>


  <symbol id="2025-02-16" viewBox="0 0 54 88" fill="none">
    <path
      d="M0 55C14.9117 55 27 40.2254 27 22C27 40.2254 39.0883 55 54 55C39.0883 55 27 69.7746 27 88C27 69.7746 14.9117 55 0 55Z"
      fill="white"/>
    <path
      d="M36 22C40.9706 22 45 17.0751 45 11C45 17.0751 49.0294 22 54 22C49.0294 22 45 26.9249 45 33C45 26.9249 40.9706 22 36 22Z"
      fill="white"/>
    <path
      d="M0 11C4.97056 11 9 6.07513 9 0C9 6.07513 13.0294 11 18 11C13.0294 11 9 15.9249 9 22C9 15.9249 4.97056 11 0 11Z"
      fill="white"/>
  </symbol>

  <symbol id="2025-02-17" viewBox="0 0 180 180" fill="none">
    <path d="M179.205 89.6025L89.6025 0L0 89.6025H179.205Z" fill="white"/>
    <path d="M179.205 179.205L89.6025 89.6025L0 179.205H179.205Z" fill="white"/>
  </symbol>

  <symbol id="2025-02-18" viewBox="0 0 124 124" fill="none">
    <path
      d="M64.0667 30.8634C71.65 29.853 77.5 23.3597 77.5 15.5C77.5 6.93959 70.5604 0 62 0C53.4396 0 46.5 6.93959 46.5 15.5C46.5 23.3597 52.35 29.853 59.9333 30.8634V57.0107L41.4444 38.5218C46.0923 32.4451 45.6373 23.717 40.0797 18.1594C34.0266 12.1062 24.2125 12.1062 18.1594 18.1594C12.1063 24.2125 12.1063 34.0265 18.1594 40.0797C23.717 45.6373 32.445 46.0922 38.5217 41.4445L57.0106 59.9333H30.8634C29.853 52.35 23.3597 46.5 15.5 46.5C6.93959 46.5 0 53.4396 0 62C-1.05171e-06 70.5604 6.93958 77.5 15.5 77.5C23.3597 77.5 29.853 71.65 30.8634 64.0667H57.0105L38.5217 82.5555C32.4451 77.9077 23.7171 78.3627 18.1595 83.9203C12.1063 89.9734 12.1063 99.7875 18.1595 105.841C24.2126 111.894 34.0266 111.894 40.0798 105.841C45.6374 100.283 46.0923 91.5548 41.4445 85.4781L59.9333 66.9893V93.1366C52.35 94.1469 46.5 100.64 46.5 108.5C46.5 117.06 53.4396 124 62 124C70.5604 124 77.5 117.06 77.5 108.5C77.5 100.64 71.65 94.1469 64.0667 93.1366V66.9894L82.5555 85.4783C77.9078 91.555 78.3627 100.283 83.9203 105.841C89.9735 111.894 99.7875 111.894 105.841 105.841C111.894 99.7875 111.894 89.9735 105.841 83.9203C100.283 78.3627 91.5549 77.9078 85.4782 82.5556L66.9893 64.0667H93.1366C94.1469 71.65 100.64 77.5 108.5 77.5C117.06 77.5 124 70.5604 124 62C124 53.4396 117.06 46.5 108.5 46.5C100.64 46.5 94.1469 52.35 93.1366 59.9333H66.9893L85.4781 41.4445C91.5548 46.0923 100.283 45.6373 105.841 40.0797C111.894 34.0266 111.894 24.2125 105.841 18.1594C99.7874 12.1063 89.9734 12.1063 83.9202 18.1594C78.3626 23.717 77.9077 32.4451 82.5554 38.5218L64.0667 57.0105V30.8634Z"
      fill="white"/>
  </symbol>

  <symbol id="2025-02-19" viewBox="0 0 340 339" fill="none">
    <path
      d="M209.083 135.799C281.307 114.529 336.261 104.777 339.207 113.722C342.154 122.666 292.166 147.488 221.442 173.313C287.553 209.343 333.306 241.305 329.065 249.713C324.824 258.122 271.925 240.326 203.655 208.578C224.926 280.802 234.677 335.755 225.733 338.702C216.788 341.649 191.967 291.66 166.142 220.936C130.112 287.047 98.1498 332.8 89.7414 328.559C81.333 324.318 99.1283 271.42 130.877 203.15C58.6525 224.42 3.69953 234.172 0.752748 225.227C-2.19404 216.283 47.794 191.461 118.518 165.636C52.4071 129.607 6.65409 97.6443 10.8951 89.236C15.136 80.8276 68.0346 98.6229 136.305 130.372C115.034 58.1471 105.283 3.19404 114.227 0.247248C123.172 -2.69954 147.993 47.2885 173.818 118.013C209.848 51.9016 241.81 6.14858 250.219 10.3896C258.627 14.6305 240.832 67.5291 209.083 135.799Z"
      fill="white"/>
  </symbol>

  <symbol id="2025-02-20" viewBox="0 0 85 146" fill="none">
    <path
      d="M76.2987 32.4176C80.743 50.3213 69.4906 69.1975 69.4906 69.1975C69.4906 69.1975 51.0325 59.046 46.5882 41.1423C42.1438 23.2386 53.3963 4.36238 53.3963 4.36238C53.3963 4.36238 71.8544 14.5139 76.2987 32.4176Z"
      fill="white"/>
    <path
      d="M33.3852 88.4728C14.9472 85.8805 1.51943 68.2259 1.51943 68.2259C1.51943 68.2259 17.9856 54.7744 36.4236 57.3667C54.8616 59.959 68.2894 77.6136 68.2894 77.6136C68.2894 77.6136 51.8232 91.0652 33.3852 88.4728Z"
      fill="white"/>
    <path
      d="M60.9109 120.789C48.0486 134.251 25.8761 134.857 25.8761 134.857C25.8761 134.857 24.5575 113.636 37.4197 100.174C50.282 86.711 72.4546 86.105 72.4546 86.105C72.4546 86.105 73.7732 107.326 60.9109 120.789Z"
      fill="white"/>
  </symbol>

  <symbol id="2025-02-21" viewBox="0 0 135 135" fill="none">
    <path
      d="M0 67.5C0 30.2208 30.2208 0 67.5 0C104.779 0 135 30.2208 135 67.5C135 104.779 104.779 135 67.5 135C30.2208 135 0 104.779 0 67.5Z"
      fill="white"/>
  </symbol>

  <symbol id="2025-02-22" viewBox="0 0 253 253" fill="none">
    <path
      d="M8.65926 38.7643C4.25971 36.7949 1.08203 32.5022 0.78059 27.3576C0.349482 20.0001 5.96446 13.6862 13.322 13.2551C18.4666 12.9536 23.101 15.6082 25.5707 19.7477C27.5401 15.3481 31.8328 12.1704 36.9774 11.869C42.122 11.5675 46.7563 14.2222 49.2261 18.3616C51.1955 13.962 55.4881 10.7844 60.6327 10.4829C65.7773 10.1815 70.4117 12.8361 72.8814 16.9755C74.8509 12.576 79.1435 9.3983 84.2881 9.09686C89.4327 8.79542 94.0671 11.45 96.5368 15.5895C98.5062 11.1899 102.799 8.01224 107.943 7.7108C113.088 7.40935 117.722 10.064 120.192 14.2034C122.162 9.80386 126.454 6.62618 131.599 6.32473C136.743 6.02329 141.378 8.6779 143.848 12.8173C145.817 8.41779 150.11 5.24011 155.254 4.93867C160.399 4.63723 165.033 7.29184 167.503 11.4313C169.472 7.03173 173.765 3.85405 178.91 3.55261C184.054 3.25116 188.689 5.90578 191.158 10.0452C193.128 5.64567 197.42 2.46798 202.565 2.16654C207.71 1.8651 212.344 4.51971 214.814 8.65914C216.783 4.2596 221.076 1.08192 226.22 0.780477C233.578 0.349369 239.892 5.96435 240.323 13.3219C240.624 18.4665 237.97 23.1009 233.83 25.5706C238.23 27.54 241.407 31.8327 241.709 36.9773C242.01 42.1219 239.356 46.7562 235.216 49.226C239.616 51.1954 242.794 55.488 243.095 60.6326C243.396 65.7772 240.742 70.4116 236.602 72.8813C241.002 74.8508 244.18 79.1434 244.481 84.288C244.783 89.4326 242.128 94.0669 237.988 96.5367C242.388 98.5061 245.566 102.799 245.867 107.943C246.169 113.088 243.514 117.722 239.375 120.192C243.774 122.161 246.952 126.454 247.253 131.599C247.555 136.743 244.9 141.378 240.761 143.847C245.16 145.817 248.338 150.109 248.639 155.254C248.941 160.399 246.286 165.033 242.147 167.503C246.546 169.472 249.724 173.765 250.025 178.909C250.327 184.054 247.672 188.688 243.533 191.158C247.932 193.128 251.11 197.42 251.411 202.565C251.713 207.709 249.058 212.344 244.919 214.814C249.318 216.783 252.496 221.076 252.797 226.22C253.229 233.578 247.614 239.892 240.256 240.323C235.111 240.624 230.477 237.97 228.007 233.83C226.038 238.23 221.745 241.407 216.601 241.709C211.456 242.01 206.822 239.356 204.352 235.216C202.383 239.616 198.09 242.793 192.945 243.095C187.801 243.396 183.166 240.742 180.697 236.602C178.727 241.002 174.435 244.18 169.29 244.481C164.145 244.782 159.511 242.128 157.041 237.988C155.072 242.388 150.779 245.566 145.635 245.867C140.49 246.168 135.856 243.514 133.386 239.374C131.416 243.774 127.124 246.952 121.979 247.253C116.835 247.555 112.2 244.9 109.731 240.76C107.761 245.16 103.468 248.338 98.3238 248.639C93.1793 248.941 88.5449 246.286 86.0751 242.147C84.1057 246.546 79.8131 249.724 74.6685 250.025C69.5239 250.327 64.8895 247.672 62.4198 243.533C60.4503 247.932 56.1577 251.11 51.0131 251.411C45.8685 251.713 41.2342 249.058 38.7644 244.919C36.795 249.318 32.5024 252.496 27.3578 252.797C20.0002 253.228 13.6863 247.613 13.2552 240.256C12.9537 235.111 15.6083 230.477 19.7478 228.007C15.3482 226.038 12.1705 221.745 11.8691 216.601C11.5677 211.456 14.2223 206.822 18.3617 204.352C13.9622 202.382 10.7845 198.09 10.483 192.945C10.1816 187.801 12.8362 183.166 16.9756 180.696C12.5761 178.727 9.39842 174.434 9.09697 169.29C8.79553 164.145 11.4502 159.511 15.5896 157.041C11.19 155.072 8.01235 150.779 7.71091 145.634C7.40947 140.49 10.0641 135.856 14.2035 133.386C9.80397 131.416 6.62629 127.124 6.32485 121.979C6.0234 116.834 8.67802 112.2 12.8174 109.73C8.4179 107.761 5.24023 103.468 4.93878 98.3237C4.63734 93.1791 7.29195 88.5448 11.4314 86.075C7.03184 84.1056 3.85416 79.813 3.55272 74.6684C3.25128 69.5238 5.90589 64.8894 10.0453 62.4196C5.64578 60.4502 2.4681 56.1576 2.16665 51.013C1.86521 45.8684 4.51983 41.234 8.65926 38.7643Z"
      fill="white"/>
  </symbol>


  <symbol id="2025-02-23" viewBox="0 0 135 375" fill="none">
    <path
      d="M57.2946 38.7388L40.8722 30.4724L32.2579 46.715L15.6742 65.0336L31.2327 80.9101L40.5334 99.8487L60.1816 91.083L81.2794 86.8678L77.911 66.0393L81.4185 44.0887L57.2946 38.7388Z"
      fill="white"/>
    <path
      d="M121.484 138.82L120.857 123.715L105.738 123.805L85.9404 118.936L80.7524 136.38L70.8611 150.487L85.0189 161.295L96.486 174.924L110.108 164.374L127.287 158.365L121.484 138.82Z"
      fill="white"/>
    <path
      d="M60.338 193.065L49.0912 168.135L23.7784 178.491L-12.7349 183.68L-9.66909 216.458L-16.7491 246.81L14.3063 255.394L42.7499 270.529L58.4925 243.63L83.2677 221.95L60.338 193.065Z"
      fill="white"/>
  </symbol>


  <symbol id="2025-02-24" viewBox="0 0 212 394" fill="none">
    <path
      d="M149.413 82.0943C189.021 99.8515 208.438 136.22 211.551 176.824C212.052 183.365 206.682 188.693 200.122 188.693H157.312C192.337 208.056 208.773 241.908 211.566 279.478C212.052 286.021 206.682 291.347 200.122 291.347H157.312C192.337 310.709 208.773 344.562 211.566 382.132C212.052 388.674 206.682 394 200.122 394H11.8783C5.3181 394 -0.0520694 388.674 0.434263 382.132C3.22715 344.562 19.663 310.709 54.6884 291.347H11.8783C5.3181 291.347 -0.0520692 286.021 0.434263 279.478C3.22716 241.908 19.663 208.056 54.6884 188.693H11.8783C5.3181 188.693 -0.0522981 183.365 0.449148 176.824C3.56193 136.22 22.9792 99.8515 62.5868 82.0943L14.2013 0L197.799 1.97733e-05L149.413 82.0943Z"
      fill="white"/>
  </symbol>

  <symbol id="2025-02-25" viewBox="0 0 99 130" fill="none">
    <path
      d="M19.8327 1.40627C27.5181 3.56707 32.066 11.4714 30.125 19.1721L27.9398 27.0669L30.7704 32.0897C32.0811 34.4154 31.2654 37.3592 28.9485 38.665C26.6316 39.9707 23.6908 39.1439 22.3801 36.8182L19.5494 31.7955L11.6641 29.5761C4.07134 27.2483 -0.33494 19.2642 1.79686 11.5707C3.95988 3.76462 12.0348 -0.786165 19.8327 1.40627Z"
      fill="white"/>
    <path
      d="M6.34874 65.1628C12.8524 69.7978 21.8218 68.3735 26.5524 62.0163L29.944 57.2307C30.9651 55.79 33.1384 55.9077 34.008 57.4508L38.3975 65.2395C39.7082 67.5652 42.6489 68.392 44.9659 67.0863C47.2828 65.7805 48.0985 62.8367 46.7878 60.511L42.3984 52.7223C41.5287 51.1792 42.5536 49.2591 44.3148 49.1318L50.165 48.7089C58.0533 47.9545 63.9169 41.0194 63.3202 33.0554C62.7147 24.9747 55.6875 18.8947 47.6245 19.4754C39.6779 20.0476 33.6909 26.876 34.0994 34.8087L34.836 44.6751C34.9881 46.7124 32.7047 47.9993 31.0407 46.8141L22.982 41.0742C16.4075 36.6164 7.46563 38.2014 2.86057 44.7029C-1.81192 51.2997 -0.250217 60.4598 6.34874 65.1628Z"
      fill="white"/>
    <path
      d="M44.2327 93.3883C39.5021 99.7455 30.5328 101.17 24.0291 96.5348C17.4301 91.8319 15.8684 82.6717 20.5409 76.075C25.1459 69.5735 34.0879 67.9884 40.6623 72.4462L48.721 78.1861C50.385 79.3713 52.6684 78.0844 52.5163 76.0472L51.7797 66.1808C51.3713 58.248 57.3582 51.4196 65.3048 50.8474C73.3678 50.2668 80.395 56.3468 81.0005 64.4274C81.5972 72.3915 75.7336 79.3265 67.8454 80.0809L61.9951 80.5038C60.2339 80.6311 59.209 82.5512 60.0787 84.0943L64.4681 91.883C65.7788 94.2087 64.9631 97.1525 62.6462 98.4583C60.3293 99.764 57.3885 98.9372 56.0778 96.6115L51.6884 88.8229C50.8187 87.2797 48.6454 87.162 47.6243 88.6027L44.2327 93.3883Z"
      fill="white"/>
    <path
      d="M61.3198 123.708C56.5891 130.065 47.6198 131.489 41.1161 126.854C34.5171 122.151 32.9554 112.991 37.6279 106.394C42.233 99.8927 51.1749 98.3077 57.7494 102.765L65.808 108.505C67.472 109.691 69.7555 108.404 69.6033 106.366L68.8667 96.5C68.4583 88.5673 74.4452 81.7389 82.3918 81.1667C90.4548 80.586 97.482 86.666 98.0875 94.7467C98.6843 102.711 92.8206 109.646 84.9324 110.4L79.0822 110.823C77.3209 110.95 76.296 112.87 77.1657 114.414L81.5552 122.202C82.8659 124.528 82.0501 127.472 79.7332 128.778C77.4163 130.083 74.4755 129.256 73.1648 126.931L68.7754 119.142C67.9057 117.599 65.7324 117.481 64.7114 118.922L61.3198 123.708Z"
      fill="white"/>
  </symbol>

  <symbol id="2025-02-26" viewBox="0 0 357 357" fill="none">
    <path d="M178.175 163.921L188.976 0H167.374L178.175 163.921Z" fill="white"/>
    <path d="M178.175 192.429L188.976 356.35H167.374L178.175 192.429Z" fill="white"/>
    <path d="M178.175 192.429L167.374 356.35H188.976L178.175 192.429Z" fill="white"/>
    <path d="M178.175 163.921L167.374 0H188.976L178.175 163.921Z" fill="white"/>
    <path d="M192.429 178.175L356.35 188.976V167.374L192.429 178.175Z" fill="white"/>
    <path d="M163.921 178.175L0 188.976L9.44277e-07 167.374L163.921 178.175Z" fill="white"/>
    <path d="M163.921 178.175L9.44277e-07 167.374L0 188.976L163.921 178.175Z" fill="white"/>
    <path d="M192.429 178.175L356.35 167.374V188.976L192.429 178.175Z" fill="white"/>
    <path d="M168.096 168.096L59.8238 44.5485L44.5485 59.8238L168.096 168.096Z" fill="white"/>
    <path d="M188.254 188.254L311.801 296.526L296.526 311.801L188.254 188.254Z" fill="white"/>
    <path d="M188.254 188.254L296.526 311.801L311.801 296.526L188.254 188.254Z" fill="white"/>
    <path d="M168.096 168.096L44.5485 59.8238L59.8238 44.5485L168.096 168.096Z" fill="white"/>
    <path d="M188.254 168.096L311.801 59.8239L296.526 44.5486L188.254 168.096Z" fill="white"/>
    <path d="M168.096 188.254L59.8238 311.801L44.5485 296.526L168.096 188.254Z" fill="white"/>
    <path d="M168.096 188.254L44.5485 296.526L59.8238 311.801L168.096 188.254Z" fill="white"/>
    <path d="M188.254 168.096L296.526 44.5486L311.801 59.8239L188.254 168.096Z" fill="white"/>
    <path d="M181.864 164.406L234.723 8.86671L213.857 3.27556L181.864 164.406Z" fill="white"/>
    <path d="M174.486 191.943L142.493 353.074L121.627 347.483L174.486 191.943Z" fill="white"/>
    <path d="M174.486 191.943L121.627 347.483L142.493 353.074L174.486 191.943Z" fill="white"/>
    <path d="M181.864 164.406L213.857 3.27556L234.723 8.86671L181.864 164.406Z" fill="white"/>
    <path d="M191.943 181.864L347.483 234.723L353.074 213.857L191.943 181.864Z" fill="white"/>
    <path d="M164.406 174.486L3.27559 142.493L8.86674 121.626L164.406 174.486Z" fill="white"/>
    <path d="M164.406 174.486L8.86674 121.626L3.27559 142.493L164.406 174.486Z" fill="white"/>
    <path d="M191.943 181.864L353.074 213.857L347.483 234.723L191.943 181.864Z" fill="white"/>
    <path d="M171.048 165.83L98.4416 18.4703L79.7332 29.2716L171.048 165.83Z" fill="white"/>
    <path d="M185.302 190.519L276.616 327.078L257.908 337.879L185.302 190.519Z" fill="white"/>
    <path d="M185.302 190.519L257.908 337.879L276.616 327.078L185.302 190.519Z" fill="white"/>
    <path d="M171.048 165.83L79.7332 29.2716L98.4416 18.4703L171.048 165.83Z" fill="white"/>
    <path d="M190.519 171.048L337.879 98.4416L327.078 79.7332L190.519 171.048Z" fill="white"/>
    <path d="M165.83 185.302L29.2715 276.616L18.4703 257.908L165.83 185.302Z" fill="white"/>
    <path d="M165.83 185.302L18.4703 257.908L29.2715 276.616L165.83 185.302Z" fill="white"/>
    <path d="M190.519 171.048L327.078 79.7332L337.879 98.4416L190.519 171.048Z" fill="white"/>
    <path d="M185.302 165.83L276.616 29.2715L257.908 18.4702L185.302 165.83Z" fill="white"/>
    <path d="M171.048 190.519L98.4416 337.879L79.7332 327.078L171.048 190.519Z" fill="white"/>
    <path d="M171.048 190.519L79.7332 327.078L98.4416 337.879L171.048 190.519Z" fill="white"/>
    <path d="M185.302 165.83L257.908 18.4702L276.616 29.2715L185.302 165.83Z" fill="white"/>
    <path d="M190.519 185.302L327.078 276.616L337.879 257.908L190.519 185.302Z" fill="white"/>
    <path d="M165.83 171.048L18.4703 98.4416L29.2715 79.7332L165.83 171.048Z" fill="white"/>
    <path d="M165.83 171.048L29.2715 79.7332L18.4703 98.4416L165.83 171.048Z" fill="white"/>
    <path d="M190.519 185.302L337.879 257.908L327.078 276.616L190.519 185.302Z" fill="white"/>
    <path d="M174.486 164.407L142.493 3.27565L121.627 8.86679L174.486 164.407Z" fill="white"/>
    <path d="M181.864 191.943L234.723 347.483L213.857 353.074L181.864 191.943Z" fill="white"/>
    <path d="M181.864 191.943L213.857 353.074L234.723 347.483L181.864 191.943Z" fill="white"/>
    <path d="M174.486 164.407L121.627 8.86679L142.493 3.27565L174.486 164.407Z" fill="white"/>
    <path d="M191.943 174.486L353.074 142.493L347.483 121.626L191.943 174.486Z" fill="white"/>
    <path d="M164.406 181.864L8.86675 234.723L3.2756 213.857L164.406 181.864Z" fill="white"/>
    <path d="M164.406 181.864L3.2756 213.857L8.86675 234.723L164.406 181.864Z" fill="white"/>
    <path d="M191.943 174.486L347.483 121.626L353.074 142.493L191.943 174.486Z" fill="white"/>
  </symbol>

  <symbol id="2025-02-27" viewBox="0 0 277 91" fill="none">
    <path
      d="M277 91H0C4.00076 57.9334 29.002 32.462 59.2471 32.462C59.6228 32.462 59.9977 32.4659 60.3718 32.4738C76.4044 12.6636 100.903 0 128.356 0C164.351 0 195.266 21.7698 208.68 52.8742C213.283 51.7091 218.122 51.0877 223.115 51.0877C249.243 51.0877 271.148 68.1026 277 91Z"
      fill="white"/>
  </symbol>

  <symbol id="2025-02-28" viewBox="0 0 223 211" fill="none">
    <path
      d="M89.8941 124.608C114.481 115.876 133.311 111.458 134.501 114.497C135.69 117.536 118.865 127.075 94.8829 137.354C118.443 148.565 134.882 158.756 133.574 161.746C132.266 164.736 113.624 159.583 89.3981 149.894C98.1298 174.481 102.548 193.311 99.5086 194.501C96.4696 195.69 86.9314 178.864 76.6524 154.883C65.4407 178.443 55.25 194.881 52.2599 193.574C49.2699 192.266 54.4229 173.624 64.1121 149.398C39.5248 158.13 20.695 162.547 19.5055 159.508C18.316 156.469 35.1416 146.931 59.1232 136.652C35.5631 125.44 19.1246 115.25 20.4324 112.26C21.7401 109.27 40.3822 114.423 64.6082 124.112C55.8765 99.5246 51.4586 80.6948 54.4976 79.5052C57.5366 78.3157 67.0748 95.1413 77.3539 119.123C88.5655 95.5629 98.7563 79.1243 101.746 80.4321C104.736 81.7399 99.5833 100.382 89.8941 124.608Z"
      fill="white"/>
    <path
      d="M78.8868 25.1066C82.5624 23.8013 85.3773 23.1409 85.5552 23.5952C85.733 24.0495 83.2177 25.4753 79.6326 27.012C83.1547 28.688 85.6121 30.2114 85.4166 30.6584C85.2211 31.1054 82.4343 30.3351 78.8127 28.8866C80.118 32.5622 80.7784 35.3771 80.3241 35.5549C79.8698 35.7327 78.444 33.2175 76.9073 29.6324C75.2313 33.1544 73.7079 35.6119 73.2609 35.4164C72.8139 35.2209 73.5842 32.434 75.0327 28.8125C71.3571 30.1178 68.5422 30.7782 68.3644 30.3239C68.1866 29.8696 70.7018 28.4437 74.2869 26.9071C70.7648 25.2311 68.3074 23.7076 68.5029 23.2606C68.6984 22.8137 71.4853 23.584 75.1068 25.0324C73.8015 21.3569 73.1411 18.542 73.5954 18.3641C74.0497 18.1863 75.4756 20.7016 77.0122 24.2866C78.6882 20.7646 80.2117 18.3072 80.6586 18.5027C81.1056 18.6982 80.3353 21.485 78.8868 25.1066Z"
      fill="white"/>
    <path
      d="M169.543 70.1357C177.493 72.477 183.157 74.8534 182.896 75.8565C182.635 76.8596 176.531 76.1734 168.448 74.3429C172.414 81.6196 174.739 87.3055 173.845 87.8302C172.951 88.355 169.12 83.5532 164.699 76.5437C162.358 84.4932 159.982 90.1579 158.979 89.8969C157.976 89.6359 158.662 83.5313 160.492 75.4489C153.216 79.4145 147.53 81.7398 147.005 80.8459C146.48 79.952 151.282 76.1206 158.291 71.6999C150.342 69.3586 144.677 66.9822 144.938 65.9791C145.199 64.976 151.304 65.6622 159.386 67.4927C155.421 60.216 153.095 54.5301 153.989 54.0054C154.883 53.4806 158.715 58.2824 163.135 65.2919C165.477 57.3424 167.853 51.6777 168.856 51.9387C169.859 52.1997 169.173 58.3043 167.342 66.3867C174.619 62.4211 180.305 60.0958 180.83 60.9897C181.355 61.8836 176.553 65.715 169.543 70.1357Z"
      fill="white"/>
  </symbol>

  <symbol id="2025-03-01" viewBox="0 0 182 183" fill="none">
    <path
      d="M36.7615 0.997791L47.5036 13.457C48.2911 14.3704 49.705 14.3704 50.4926 13.457L61.5041 0.685108C62.2916 -0.228337 63.7056 -0.228338 64.4931 0.685108L75.5047 13.457C76.2922 14.3704 77.7061 14.3704 78.4937 13.457L89.5053 0.685083C90.2929 -0.228353 91.7068 -0.228353 92.4943 0.685082L103.506 13.457C104.294 14.3704 105.707 14.3704 106.495 13.457L117.507 0.685071C118.294 -0.228359 119.708 -0.228357 120.496 0.685077L131.507 13.457C132.295 14.3704 133.709 14.3704 134.496 13.457L145.238 0.997814C146.112 -0.0149039 147.716 0.115038 148.415 1.2551L160.756 21.375C160.918 21.6397 161.141 21.8624 161.405 22.0249L181.059 34.1127C182.314 34.8844 182.314 36.7104 181.059 37.4821L163.742 48.1324C162.488 48.9041 162.488 50.7301 163.742 51.5018L181.059 62.152C182.314 62.9237 182.314 64.7497 181.059 65.5214L163.742 76.1717C162.488 76.9434 162.488 78.7694 163.742 79.5411L181.059 90.1913C182.314 90.963 182.314 92.789 181.059 93.5607L163.742 104.211C162.488 104.983 162.488 106.809 163.742 107.581L181.059 118.231C182.314 119.003 182.314 120.829 181.059 121.6L163.742 132.251C162.488 133.022 162.488 134.848 163.742 135.62L181.059 146.27C182.314 147.042 182.314 148.868 181.059 149.64L161.405 161.727C161.141 161.89 160.918 162.112 160.756 162.377L148.685 182.058C147.914 183.314 146.091 183.314 145.32 182.058L134.684 164.718C133.914 163.461 132.09 163.461 131.32 164.718L120.684 182.058C119.913 183.314 118.09 183.314 117.319 182.058L106.683 164.718C105.912 163.461 104.089 163.461 103.318 164.718L92.6823 182.058C91.9116 183.314 90.0881 183.314 89.3174 182.058L78.6817 164.718C77.911 163.461 76.0875 163.461 75.3169 164.718L64.681 182.058C63.9104 183.314 62.0869 183.314 61.3162 182.058L50.6805 164.718C49.9098 163.461 48.0863 163.461 47.3156 164.718L36.6798 182.058C35.9091 183.314 34.0856 183.314 33.315 182.058L21.2437 162.377C21.0813 162.112 20.8589 161.89 20.5946 161.727L0.941103 149.64C-0.313671 148.868 -0.313666 147.042 0.941111 146.27L18.2576 135.62C19.5123 134.848 19.5123 133.022 18.2576 132.25L0.941095 121.6C-0.313677 120.828 -0.313681 119.002 0.941092 118.231L18.2575 107.58C19.5123 106.809 19.5123 104.983 18.2575 104.211L0.941065 93.5606C-0.313698 92.7889 -0.313685 90.9629 0.941083 90.1912L18.2575 79.5409C19.5123 78.7692 19.5123 76.9433 18.2575 76.1715L0.941098 65.5213C-0.313675 64.7495 -0.31367 62.9236 0.941104 62.1518L18.2575 51.5016C19.5123 50.7299 19.5123 48.9039 18.2575 48.1322L0.941103 37.482C-0.313671 36.7102 -0.313665 34.8843 0.941112 34.1125L20.5947 22.0249C20.859 21.8623 21.0814 21.6397 21.2438 21.3749L33.5846 1.25508C34.2838 0.115024 35.8884 -0.0149189 36.7615 0.997791Z"
      fill="white"/>
  </symbol>

  <symbol id="2025-03-02" viewBox="0 0 81 392" fill="none">
    <path
      d="M45.7477 376.759V391.465H35.8657V376.759L22.4918 383.878L18.9607 373.962L35.8657 364.964L35.8657 355.243L17.0317 365.267L13.5007 355.352L35.8657 343.448V333.255L12.8711 345.494L9.34004 335.578L35.8657 321.46V311.139L7.74079 326.108L4.20971 316.193L35.8657 299.344V289.942L4.33772 306.723L0.806641 296.807L35.8657 278.147V270.52L4.33772 287.3L0.806641 277.385L35.8657 258.725V248.42L4.33772 265.201L0.806641 255.285L35.8657 236.625V228.841L4.33772 245.621L0.806641 235.706L35.8657 217.046V208.486L4.33772 225.266L0.806641 215.351L35.8657 196.691V186.58L4.33772 203.361L0.806641 193.445L35.8657 174.785V163.511L4.33772 180.292L0.806641 170.376L35.8657 151.716L35.8657 143.35L4.33772 160.131L0.806641 150.215L35.8657 131.555V120.798L7.49398 135.898L3.9629 125.983L35.8657 109.003V101.215L12.3448 113.733L8.81369 103.818L35.8657 89.4195L35.8657 80.2851L20.7356 88.3379L17.2045 78.4223L35.8657 68.49L35.8657 0.464722H45.7477L45.7477 68.49L64.4089 78.4223L60.8778 88.338L45.7477 80.2851L45.7477 89.4196L72.7996 103.818L69.2685 113.733L45.7477 101.215V109.003L77.6504 125.983L74.1193 135.899L45.7477 120.798V131.555L80.8066 150.215L77.2756 160.131L45.7477 143.35L45.7477 151.716L80.8066 170.376L77.2756 180.292L45.7477 163.511V174.785L80.8066 193.445L77.2756 203.361L45.7477 186.58V196.691L80.8066 215.351L77.2756 225.266L45.7477 208.486V217.046L80.8066 235.706L77.2756 245.621L45.7477 228.841V236.625L80.8066 255.285L77.2756 265.201L45.7477 248.42V258.725L80.8066 277.385L77.2756 287.3L45.7477 270.52V278.147L80.8066 296.807L77.2756 306.723L45.7477 289.942V299.344L77.4035 316.193L73.8725 326.108L45.7477 311.139V321.461L72.2732 335.578L68.7421 345.494L45.7477 333.256V343.448L68.1127 355.352L64.5816 365.267L45.7477 355.243L45.7477 364.964L62.6526 373.962L59.1215 383.878L45.7477 376.759Z"
      fill="white"/>
  </symbol>


  <symbol id="2025-03-03" viewBox="0 0 440 220" fill="none">
    <path fill-rule="evenodd" clip-rule="evenodd"
          d="M220 68.6222C303.604 68.6222 371.378 136.396 371.378 220H332.713C332.714 157.75 282.25 107.286 220 107.286C157.75 107.286 107.286 157.75 107.286 220H68.6221C68.6221 136.396 136.396 68.6222 220 68.6222Z"
          fill="white"/>
    <path fill-rule="evenodd" clip-rule="evenodd"
          d="M220 0C341.503 1.06221e-05 440 98.4974 440 220H401.336C401.336 119.851 320.149 38.6643 220 38.6643C119.851 38.6643 38.6643 119.851 38.6643 220H0C1.06221e-05 98.4973 98.4974 -1.06221e-05 220 0Z"
          fill="white"/>
    <path fill-rule="evenodd" clip-rule="evenodd"
          d="M220 134.125C267.427 134.125 305.875 172.573 305.875 220H267.211C267.211 193.926 246.074 172.789 220 172.789C193.926 172.789 172.79 193.926 172.79 220H134.125C134.125 172.573 172.573 134.125 220 134.125Z"
          fill="white"/>
  </symbol>

  <symbol id="2025-03-04" viewBox="0 0 302 131" fill="none">
    <path
      d="M0 105.686V130.992C20.4697 130.563 36.9321 113.755 36.9321 93.0833V42.9022C36.9321 30.9469 44.5854 25.2883 49.4997 25.2883C54.4139 25.2883 62.0673 30.9469 62.0673 42.9022V88.0978C62.0673 109.565 76.9349 131 99.8016 131C122.668 131 137.536 109.565 137.536 88.0978V42.9022C137.536 30.9469 145.189 25.2883 150.103 25.2883C155.018 25.2883 162.671 30.9469 162.671 42.9022V88.0978C162.671 109.565 177.539 131 200.405 131C223.272 131 238.14 109.565 238.14 88.0978V42.9022C238.14 30.9469 245.793 25.2883 250.707 25.2883C255.621 25.2883 263.275 30.9469 263.275 42.9022V88.0978C263.275 109.565 278.142 131 301.009 131C301.341 131 301.671 130.995 302 130.986V105.64C301.66 105.688 301.329 105.712 301.009 105.712C296.095 105.712 288.441 100.053 288.441 88.0978V42.9022C288.441 21.4354 273.574 0 250.707 0C227.84 0 212.973 21.4354 212.973 42.9022V88.0978C212.973 100.053 205.32 105.712 200.405 105.712C195.491 105.712 187.838 100.053 187.838 88.0978V42.9022C187.838 21.4354 172.97 0 150.103 0C127.237 0 112.369 21.4354 112.369 42.9022V88.0978C112.369 100.053 104.716 105.712 99.8016 105.712C94.8873 105.712 87.2339 100.053 87.2339 88.0978V42.9022C87.2339 21.4354 72.3664 0 49.4997 0C26.633 0 11.7654 21.4354 11.7654 42.9022V93.0833C11.7654 99.787 6.56711 105.271 0 105.686Z"
      fill="white"/>
  </symbol>

  <symbol id="2025-03-05" viewBox="0 0 130 123" fill="none">
    <path d="M39.4222 46.5183L29.1242 33L67.8758 33L57.5783 46.5177L97 123L0 123L39.4222 46.5183Z" fill="white"/>
    <path
      d="M99.1947 34.5201L98.3172 40.6524L88.4301 30.7653L94.5622 29.8879L104.334 -8.22544e-06L129.083 24.7487L99.1947 34.5201Z"
      fill="white"/>
  </symbol>

  <symbol id="2025-03-06" viewBox="0 0 174 171" fill="none">
    <path
      d="M0 70.2129L87 0L174 70.2129V171H132.673V141.137C132.673 115.927 112.224 95.4909 86.9999 95.4909C61.7755 95.4909 41.3271 115.927 41.3271 141.137V171H0V70.2129Z"
      fill="white"/>
  </symbol>

  <symbol id="2025-03-07" viewBox="0 0 111 137" fill="none">
    <path
      d="M24.3073 80.2286L0.633446 105.852L34.8333 112.734L60.4566 136.408L67.3391 102.208L91.0129 76.5849L56.813 69.7025L31.1897 46.0287L24.3073 80.2286Z"
      fill="white"/>
    <path
      d="M75.3715 16.4604L56.2011 23.3565L72.0656 36.1384L78.9618 55.3089L91.7437 39.4443L110.914 32.5482L95.0495 19.7663L88.1534 0.595821L75.3715 16.4604Z"
      fill="white"/>
  </symbol>

  <symbol id="2025-03-08" viewBox="0 0 357 287" fill="none">
    <path
      d="M177.55 286.801C262.363 235.246 356.35 165.911 356.35 59.3917C356.35 26.5907 329.759 0.000119746 296.958 0.000116878C264.805 0.000114067 238.62 25.5497 237.597 57.4538L237.535 57.4538C236.513 25.5497 210.328 0.000109305 178.175 0.000106494C146.022 0.000103683 119.837 25.5497 118.814 57.4538L118.752 57.4538C117.73 25.5497 91.5443 9.89203e-05 59.3917 9.61094e-05C26.5907 9.32419e-05 0.000114301 26.5906 0.000111434 59.3917C0.000102069 166.507 91.614 234.564 177.55 286.801Z"
      fill="white"/>
  </symbol>

  <symbol id="2025-03-09" viewBox="0 0 225 225" fill="none">
    <path
      d="M131.263 19.0789C131.263 8.54189 122.721 0 112.184 0C101.647 0 93.1048 8.54189 93.1048 19.0789V39.9942L82.7712 21.8099C77.5653 12.6488 65.9185 9.44255 56.7574 14.6485C47.5963 19.8545 44.39 31.5013 49.596 40.6624L61.355 61.355L40.6624 49.596C31.5013 44.39 19.8545 47.5963 14.6485 56.7574C9.44257 65.9184 12.6488 77.5652 21.8099 82.7712L39.9942 93.1048H19.0789C8.54189 93.1048 0 101.647 0 112.184C0 122.721 8.54189 131.263 19.0789 131.263H39.9942L21.8099 141.596C12.6488 146.802 9.44258 158.449 14.6485 167.61C19.8545 176.771 31.5013 179.977 40.6624 174.771L61.355 163.012L49.596 183.705C44.39 192.866 47.5963 204.513 56.7574 209.719C65.9185 214.925 77.5653 211.719 82.7712 202.557L93.1048 184.373V205.288C93.1048 215.825 101.647 224.367 112.184 224.367C122.721 224.367 131.263 215.825 131.263 205.288V184.373L141.596 202.557C146.802 211.719 158.449 214.925 167.61 209.719C176.771 204.513 179.977 192.866 174.771 183.705L163.012 163.012L183.705 174.771C192.866 179.977 204.513 176.771 209.719 167.61C214.925 158.449 211.719 146.802 202.557 141.596L184.373 131.263H205.288C215.825 131.263 224.367 122.721 224.367 112.184C224.367 101.647 215.825 93.1048 205.288 93.1048H184.373L202.557 82.7712C211.719 77.5652 214.925 65.9184 209.719 56.7574C204.513 47.5963 192.866 44.39 183.705 49.596L163.012 61.355L174.771 40.6624C179.977 31.5013 176.771 19.8545 167.61 14.6485C158.449 9.44255 146.802 12.6488 141.596 21.8099L131.263 39.9942V19.0789Z"
      fill="white"/>
  </symbol>

  <symbol id="2025-03-10" viewBox="0 0 277 91" fill="none">
    <path
      d="M277 91H0C4.00076 57.9334 29.002 32.462 59.2471 32.462C59.6228 32.462 59.9977 32.4659 60.3718 32.4738C76.4044 12.6636 100.903 0 128.356 0C164.351 0 195.266 21.7698 208.68 52.8742C213.283 51.7091 218.122 51.0877 223.115 51.0877C249.243 51.0877 271.148 68.1026 277 91Z"
      fill="white"/>
  </symbol>

  <symbol id="2025-03-11" viewBox="0 0 220 215" fill="none">
    <path
      d="M1.07316e-06 107.477C1.40714e-06 162.717 109.93 107.477 109.93 107.477C109.93 107.477 7.39176e-07 52.2378 1.07316e-06 107.477Z"
      fill="white"/>
    <path
      d="M219.859 107.477C219.859 162.717 109.93 107.477 109.93 107.477C109.93 107.477 219.859 52.2378 219.859 107.477Z"
      fill="white"/>
    <path
      d="M54.9649 202.679C102.804 230.299 109.93 107.477 109.93 107.477C109.93 107.477 7.12592 175.059 54.9649 202.679Z"
      fill="white"/>
    <path
      d="M164.895 12.2755C212.734 39.8953 109.93 107.477 109.93 107.477C109.93 107.477 117.056 -15.3444 164.895 12.2755Z"
      fill="white"/>
    <path
      d="M164.894 202.679C117.056 230.299 109.93 107.477 109.93 107.477C109.93 107.477 212.733 175.059 164.894 202.679Z"
      fill="white"/>
    <path
      d="M54.9648 12.2755C7.12584 39.8953 109.93 107.477 109.93 107.477C109.93 107.477 102.804 -15.3444 54.9648 12.2755Z"
      fill="white"/>
  </symbol>

  <symbol id="2025-03-12" viewBox="0 0 279 279" fill="none">
    <path
      d="M146.868 0.417632C147.52 7.99031 147.509 15.7268 146.779 23.5619C140.182 94.404 77.4057 146.485 6.5635 139.889C4.59384 139.705 2.63868 139.478 0.698885 139.209C0.59153 210.264 54.7021 270.962 126.839 277.679C203.288 284.798 271.032 228.595 278.151 152.147C285.27 75.6985 229.067 7.95398 152.618 0.835247C150.696 0.656231 148.779 0.517267 146.868 0.417632Z"
      fill="white"/>
  </symbol>

  <symbol id="2025-03-13" viewBox="0 0 252 335" fill="none">
    <path
      d="M16.7153 184.746C12.2403 170.958 19.7902 156.152 33.5786 151.677L68.9209 140.207C53.0548 141.476 36.9267 138.807 22.0388 132.166L16.4055 129.653C3.16649 123.747 -2.77858 108.228 3.12682 94.9888C9.03224 81.7498 24.5519 75.8047 37.791 81.7101L43.4242 84.2229C52.3896 88.222 62.3444 89.0526 71.7008 86.7499C46.1821 82.5257 23.3025 68.1666 8.40607 46.7425L4.88476 41.6781C-3.39089 29.776 -0.451075 13.4187 11.451 5.14307C23.3531 -3.13258 39.7104 -0.192768 47.986 11.7093L51.5073 16.7737C91.0044 73.5786 232.938 59.018 249.5 111.095C266.063 163.172 141.572 232.578 142.144 301.763L142.195 307.931C142.315 322.427 130.661 334.275 116.165 334.395C101.669 334.515 89.821 322.861 89.7011 308.365L89.6501 302.197C89.4343 276.104 99.8161 251.166 118.207 232.977C109.239 236.502 101.593 242.931 96.5845 251.374L93.4376 256.679C86.042 269.147 69.9394 273.259 57.4714 265.864C45.0034 258.468 40.8914 242.365 48.287 229.897L51.4338 224.592C59.7505 210.571 71.3738 199.076 85.058 190.947L49.5828 201.999C35.7425 206.311 21.0272 198.587 16.7153 184.746Z"
      fill="white"/>
  </symbol>

  <symbol id="2025-03-14" viewBox="0 0 135 136" fill="none">
    <path d="M0 68C0 41.6838 0 0 67.5 0C135 0 135 41.6838 135 68C135 94.3162 135 136 67.5 136C0 136 0 94.3162 0 68Z"
          fill="white"/>
  </symbol>


  <symbol id="2025-03-15" viewBox="0 0 193 129">
    <path fill-rule="evenodd" clip-rule="evenodd"
          d="M96.2871 35.4273C92.8026 35.4273 89.9942 38.3009 90.0523 41.807L90.4174 63.8431C91.0027 99.1771 62.7001 128.137 27.5831 128.137H17.671C7.98707 128.137 0.136719 120.237 0.136719 110.492C0.136719 100.747 7.98707 92.8472 17.671 92.8472H27.5831C43.1036 92.8472 55.6124 80.0477 55.3537 64.4313L54.9887 42.3952C54.604 19.1716 73.2061 0.137207 96.2871 0.137207C119.368 0.137207 137.97 19.1709 137.586 42.3942L137.221 64.4309C136.963 80.0477 149.472 92.8472 164.993 92.8472H174.602C184.286 92.8472 192.137 100.747 192.137 110.492C192.137 120.237 184.286 128.137 174.602 128.137H164.993C129.876 128.137 101.573 99.1775 102.157 63.8435L102.522 41.8068C102.58 38.3008 99.7716 35.4273 96.2871 35.4273Z"
          fill="white"/>
  </symbol>


  <symbol id="2025-03-16" viewBox="0 0 601 299" fill="none">
    <path
      d="M61.22 139.86C79.8541 133.817 99.8951 124.027 115.741 108.163C156.781 67.0773 154.142 0.81543 154.142 0.81543C154.142 0.81543 84.9632 1.16664 43.923 42.2523C12.5003 73.7099 6.68392 119.927 5.6835 139.86H0.816406V159.86H5.69909C6.74348 179.956 12.6593 225.865 43.9231 257.163C84.9632 298.249 154.142 298.6 154.142 298.6C154.142 298.6 156.781 232.338 115.741 191.253C100.159 175.653 80.5198 165.926 62.1511 159.86H153.022C154.066 179.956 159.982 225.865 191.246 257.163C232.286 298.249 301.465 298.6 301.465 298.6C301.465 298.6 304.104 232.338 263.064 191.253C247.481 175.653 227.843 165.926 209.474 159.86H300.345C301.389 179.956 307.305 225.865 338.569 257.163C379.609 298.249 448.788 298.6 448.788 298.6C448.788 298.6 451.427 232.338 410.387 191.253C394.804 175.653 375.166 165.926 356.797 159.86H447.668C448.712 179.956 454.628 225.865 485.892 257.163C526.932 298.249 596.111 298.6 596.111 298.6C596.111 298.6 598.75 232.338 557.71 191.253C542.128 175.653 522.489 165.926 504.12 159.86H600.816V139.86H503.189C521.823 133.817 541.864 124.027 557.71 108.163C598.75 67.0773 596.111 0.81543 596.111 0.81543C596.111 0.81543 526.932 1.16664 485.892 42.2523C454.469 73.7099 448.653 119.927 447.652 139.86H355.866C374.5 133.817 394.541 124.027 410.387 108.163C451.427 67.0773 448.788 0.81543 448.788 0.81543C448.788 0.81543 379.609 1.16664 338.569 42.2523C307.146 73.7099 301.33 119.927 300.329 139.86H208.543C227.177 133.817 247.218 124.027 263.064 108.163C304.104 67.0773 301.465 0.81543 301.465 0.81543C301.465 0.81543 232.286 1.16664 191.246 42.2523C159.823 73.7099 154.007 119.927 153.006 139.86H61.22Z"
      fill="white"/>
  </symbol>


  <symbol
    id="logo"
    fill="none"
    viewBox="0 0 388 189"
  >
    <path
      d="M336.065 99.8198V1.81982H356.505L355.945 18.1998C355.105 43.4932 354.592 57.8198 354.405 61.1798H354.825L366.165 1.81982H387.305V99.8198H366.865L367.705 74.6198C368.265 56.4198 368.732 44.9398 369.105 40.1798H368.685L357.205 99.8198H336.065Z"
      fill="white"
    />
    <path
      d="M299.764 99.8198H279.464V1.81982H299.764V43.6798H300.324L310.404 1.81982H331.264L319.084 48.5798L332.524 99.8198H310.824L300.324 56.5598H299.764V99.8198Z"
      fill="white"
    />
    <path
      d="M226.554 99.8198V1.81982H249.234C257.727 1.81982 263.934 3.96649 267.854 8.25982C271.867 12.5532 273.874 19.5065 273.874 29.1198V39.6198C273.874 49.2332 271.867 56.1865 267.854 60.4798C263.934 64.7732 257.727 66.9198 249.234 66.9198H246.854V99.8198H226.554ZM249.234 48.7198C250.727 48.7198 251.8 48.1598 252.454 47.0398C253.2 45.9198 253.574 44.1465 253.574 41.7198V27.0198C253.574 24.5932 253.2 22.8198 252.454 21.6998C251.8 20.5798 250.727 20.0198 249.234 20.0198H246.854V48.7198H249.234Z"
      fill="white"
    />
    <path
      d="M189.623 99.8198H169.323L182.203 1.81982H210.483L221.683 99.8198H201.103L199.983 83.0198H190.883L189.623 99.8198ZM192.283 63.4198H198.723L196.763 32.6198C196.203 25.1532 195.923 20.4865 195.923 18.6198H195.503L194.523 32.6198L192.283 63.4198Z"
      fill="white"
    />
    <path
      d="M106.006 115.22V80.2198H109.506C111.839 75.1798 113.519 68.1332 114.546 59.0798C115.573 50.0265 116.086 37.6132 116.086 21.8398V1.81982H161.586V80.2198H168.586V115.22H148.286V99.8198H126.306V115.22H106.006ZM141.286 80.2198V21.4198H136.386V23.0998C136.386 36.3532 135.733 48.2998 134.426 58.9398C133.213 69.5798 131.626 76.6732 129.666 80.2198H141.286Z"
      fill="white"
    />
    <path
      d="M79.9888 101.64C72.1488 101.64 66.1755 99.3533 62.0688 94.78C58.0555 90.1133 56.0488 83.3 56.0488 74.34V27.3C56.0488 18.4333 58.1022 11.6667 62.2088 7C66.3155 2.33333 72.2422 0 79.9888 0C87.7355 0 93.6622 2.33333 97.7688 7C101.875 11.6667 103.929 18.4333 103.929 27.3V74.34C103.929 83.2067 101.875 89.9733 97.7688 94.64C93.6622 99.3067 87.7355 101.64 79.9888 101.64ZM79.9888 82.74C81.2955 82.74 82.2288 82.2267 82.7888 81.2C83.3488 80.08 83.6288 78.26 83.6288 75.74V25.9C83.6288 23.38 83.3488 21.6067 82.7888 20.58C82.2288 19.46 81.2955 18.9 79.9888 18.9C78.6822 18.9 77.7488 19.46 77.1888 20.58C76.6288 21.6067 76.3488 23.38 76.3488 25.9V75.74C76.3488 78.26 76.6288 80.08 77.1888 81.2C77.7488 82.2267 78.6822 82.74 79.9888 82.74Z"
      fill="white"
    />
    <path
      d="M20.9943 99.8198H0.694336V1.81982H48.2943V99.8198H27.9943V21.4198H20.9943V99.8198Z"
      fill="white"
    />
    <path
      d="M314.936 181.86V137.06H324.216V152.1H325.176C329.058 152.1 331.896 153.081 333.688 155.044C335.522 157.007 336.44 160.185 336.44 164.58V169.38C336.44 173.775 335.522 176.953 333.688 178.916C331.896 180.879 329.058 181.86 325.176 181.86H314.936ZM325.176 173.54C325.858 173.54 326.349 173.284 326.648 172.772C326.989 172.26 327.16 171.449 327.16 170.34V163.62C327.16 162.511 326.989 161.7 326.648 161.188C326.349 160.676 325.858 160.42 325.176 160.42H324.216V173.54H325.176Z"
      fill="white"
    />
    <path
      d="M298.591 181.86H289.311V137.06H298.591V154.852H301.791V137.06H311.071V181.86H301.791V163.812H298.591V181.86Z"
      fill="white"
    />
    <path
      d="M286.132 181.86H269.748V137.06H285.94V146.02H279.028V154.66H285.492V163.62H279.028V172.9H286.132V181.86Z"
      fill="white"
    />
    <path
      d="M239.203 188.9V172.9H240.803C241.87 170.596 242.638 167.375 243.107 163.236C243.576 159.097 243.811 153.423 243.811 146.212V137.06H264.611V172.9H267.811V188.9H258.531V181.86H248.483V188.9H239.203ZM255.331 172.9V146.02H253.091V146.788C253.091 152.847 252.792 158.308 252.195 163.172C251.64 168.036 250.915 171.279 250.019 172.9H255.331Z"
      fill="white"
    />
    <path
      d="M203.623 181.86V137.06H212.967L212.711 144.548C212.327 156.111 212.092 162.66 212.007 164.196H212.199L217.383 137.06H227.047V181.86H217.703L218.087 170.34C218.343 162.02 218.556 156.772 218.727 154.596H218.535L213.287 181.86H203.623ZM215.399 133.86C212.882 133.86 210.94 133.199 209.575 131.876C208.252 130.511 207.591 128.527 207.591 125.924V125.22H213.479V125.924C213.479 126.906 213.628 127.631 213.927 128.1C214.226 128.527 214.716 128.74 215.399 128.74C216.082 128.74 216.572 128.527 216.871 128.1C217.17 127.631 217.319 126.906 217.319 125.924V125.22H223.207V125.924C223.207 128.527 222.524 130.511 221.159 131.876C219.836 133.199 217.916 133.86 215.399 133.86Z"
      fill="white"
    />
    <path
      d="M166.936 181.86V137.06H176.216V152.1H177.176C181.058 152.1 183.896 153.081 185.688 155.044C187.522 157.007 188.44 160.185 188.44 164.58V169.38C188.44 173.775 187.522 176.953 185.688 178.916C183.896 180.879 181.058 181.86 177.176 181.86H166.936ZM199.768 181.86H190.488V137.06H199.768V181.86ZM177.176 173.54C177.858 173.54 178.349 173.284 178.648 172.772C178.989 172.26 179.16 171.449 179.16 170.34V163.62C179.16 162.511 178.989 161.7 178.648 161.188C178.349 160.676 177.858 160.42 177.176 160.42H176.216V173.54H177.176Z"
      fill="white"
    />
    <path
      d="M136.391 188.9V172.9H137.991C139.057 170.596 139.825 167.375 140.295 163.236C140.764 159.097 140.999 153.423 140.999 146.212V137.06H161.799V172.9H164.999V188.9H155.719V181.86H145.671V188.9H136.391ZM152.519 172.9V146.02H150.279V146.788C150.279 152.847 149.98 158.308 149.383 163.172C148.828 168.036 148.103 171.279 147.207 172.9H152.519Z"
      fill="white"
    />
    <path
      d="M108.62 181.86H98.8281L104.332 158.436L99.4041 137.06H108.812L112.524 154.724H113.036V137.06H122.188V154.724H122.7L126.412 137.06H135.82L130.892 158.436L136.396 181.86H126.604L122.7 163.684H122.188V181.86H113.036V163.684H112.524L108.62 181.86Z"
      fill="white"
    />
    <path
      d="M84.4909 181.86H75.2109L81.0989 137.06H94.0269L99.1469 181.86H89.7389L89.2269 174.18H85.0669L84.4909 181.86ZM85.7069 165.22H88.6509L87.7549 151.14C87.4989 147.727 87.3709 145.593 87.3709 144.74H87.1789L86.7309 151.14L85.7069 165.22Z"
      fill="white"
    />
    <path
      d="M60.8405 181.86H51.5605V137.06H60.8405V156.196H61.0965L65.7045 137.06H75.2405L69.6725 158.436L75.8165 181.86H65.8965L61.0965 162.084H60.8405V181.86Z"
      fill="white"
    />
  </symbol>
  <symbol
    id="logo-1"
    fill="none"
    viewBox="0 0 224 155"
  >
    <g clip-path="url(#clip0_349_2063)">
      <path
        d="M201.68 147V102.2H210.96V117.24H211.92C215.802 117.24 218.64 118.221 220.432 120.184C222.266 122.146 223.184 125.325 223.184 129.72V134.52C223.184 138.914 222.266 142.093 220.432 144.056C218.64 146.018 215.802 147 211.92 147H201.68ZM211.92 138.68C212.602 138.68 213.093 138.424 213.392 137.912C213.733 137.4 213.904 136.589 213.904 135.48V128.76C213.904 127.65 213.733 126.84 213.392 126.328C213.093 125.816 212.602 125.56 211.92 125.56H210.96V138.68H211.92Z"
        fill="#A5E9FB"
      />
      <path
        d="M177.492 147V102.2H187.86C191.743 102.2 194.58 103.181 196.372 105.144C198.207 107.106 199.124 110.285 199.124 114.68V119.48C199.124 123.874 198.207 127.053 196.372 129.016C194.58 130.978 191.743 131.96 187.86 131.96H186.772V147H177.492ZM187.86 123.64C188.543 123.64 189.034 123.384 189.332 122.872C189.674 122.36 189.844 121.549 189.844 120.44V113.72C189.844 112.61 189.674 111.8 189.332 111.288C189.034 110.776 188.543 110.52 187.86 110.52H186.772V123.64H187.86Z"
        fill="#A5E9FB"
      />
      <path
        d="M160.61 147H151.33L157.218 102.2H170.146L175.266 147H165.858L165.346 139.32H161.186L160.61 147ZM161.826 130.36H164.77L163.874 116.28C163.618 112.866 163.49 110.733 163.49 109.88H163.298L162.85 116.28L161.826 130.36Z"
        fill="#A5E9FB"
      />
      <path
        d="M122.385 154.04V138.04H123.985C125.051 135.736 125.819 132.514 126.289 128.376C126.758 124.237 126.993 118.562 126.993 111.352V102.2H147.793V138.04H150.993V154.04H141.713V147H131.665V154.04H122.385ZM138.513 138.04V111.16H136.273V111.928C136.273 117.986 135.974 123.448 135.377 128.312C134.822 133.176 134.097 136.418 133.201 138.04H138.513Z"
        fill="#A5E9FB"
      />
      <path
        d="M107.96 147H98.6797V102.2H107.96V119.992H111.16V102.2H120.44V147H111.16V128.952H107.96V147Z"
        fill="#A5E9FB"
      />
      <path
        d="M95.5012 147H79.1172V102.2H95.3092V111.16H88.3972V119.8H94.8612V128.76H88.3972V138.04H95.5012V147Z"
        fill="#A5E9FB"
      />
      <path
        d="M50.1348 147.64V138.36H50.8388C51.8201 138.36 52.5241 137.72 52.9508 136.44C53.4201 135.16 53.6548 133.133 53.6548 130.36V102.2H75.2868V147H66.0068V111.16H62.9348V130.36C62.9348 134.584 62.5508 137.954 61.7828 140.472C61.0574 142.946 59.8841 144.76 58.2628 145.912C56.6414 147.064 54.4654 147.64 51.7348 147.64H50.1348Z"
        fill="#A5E9FB"
      />
      <path
        d="M35.1726 147H25.8926L31.7806 102.2H44.7086L49.8286 147H40.4206L39.9086 139.32H35.7486L35.1726 147ZM36.3886 130.36H39.3326L38.4366 116.28C38.1806 112.866 38.0526 110.733 38.0526 109.88H37.8606L37.4126 116.28L36.3886 130.36Z"
        fill="#A5E9FB"
      />
      <path
        d="M11.5222 147H2.24219V102.2H11.5222V121.336H11.7782L16.3862 102.2H25.9222L20.3542 123.576L26.4982 147H16.5782L11.7782 127.224H11.5222V147Z"
        fill="#A5E9FB"
      />
      <path
        d="M72.8672 56.9999V12.1999H82.2112L81.9552 19.6879C81.5712 31.2505 81.3365 37.7999 81.2512 39.3359H81.4432L86.6272 12.1999H96.2912V56.9999H86.9472L87.3312 45.4799C87.5872 37.1599 87.8005 31.9119 87.9712 29.7359H87.7792L82.5312 56.9999H72.8672ZM84.6432 8.99986C82.1259 8.99986 80.1845 8.33853 78.8192 7.01587C77.4965 5.65053 76.8352 3.66653 76.8352 1.06387V0.359863H82.7232V1.06387C82.7232 2.0452 82.8725 2.77053 83.1712 3.23986C83.4699 3.66653 83.9605 3.87986 84.6432 3.87986C85.3259 3.87986 85.8165 3.66653 86.1152 3.23986C86.4139 2.77053 86.5632 2.0452 86.5632 1.06387V0.359863H92.4512V1.06387C92.4512 3.66653 91.7685 5.65053 90.4032 7.01587C89.0805 8.33853 87.1605 8.99986 84.6432 8.99986Z"
        fill="#A5E9FB"
      />
      <path
        d="M58.4294 57.8317C54.8454 57.8317 52.1147 56.7863 50.2374 54.6957C48.4027 52.5623 47.4854 49.4477 47.4854 45.3517V23.8477C47.4854 19.7943 48.424 16.701 50.3014 14.5677C52.1787 12.4343 54.888 11.3677 58.4294 11.3677C61.9707 11.3677 64.68 12.4343 66.5574 14.5677C68.4347 16.701 69.3734 19.7943 69.3734 23.8477V45.3517C69.3734 49.405 68.4347 52.4983 66.5574 54.6317C64.68 56.765 61.9707 57.8317 58.4294 57.8317ZM58.4294 49.1917C59.0267 49.1917 59.4534 48.957 59.7094 48.4877C59.9654 47.9757 60.0934 47.1437 60.0934 45.9917V23.2077C60.0934 22.0557 59.9654 21.245 59.7094 20.7757C59.4534 20.2637 59.0267 20.0077 58.4294 20.0077C57.832 20.0077 57.4054 20.2637 57.1494 20.7757C56.8934 21.245 56.7654 22.0557 56.7654 23.2077V45.9917C56.7654 47.1437 56.8934 47.9757 57.1494 48.4877C57.4054 48.957 57.832 49.1917 58.4294 49.1917Z"
        fill="#A5E9FB"
      />
      <path
        d="M23.0547 56.9997V12.1997H33.5507C37.4334 12.1997 40.2707 13.181 42.0627 15.1437C43.8974 17.1064 44.8147 20.285 44.8147 24.6797V25.7677C44.8147 29.6077 43.6627 32.509 41.3587 34.4717C43.748 36.349 44.9427 39.2717 44.9427 43.2397V44.5197C44.9427 48.9144 44.0254 52.093 42.1907 54.0557C40.3987 56.0184 37.5614 56.9997 33.6787 56.9997H23.0547ZM33.5507 29.8637C34.2334 29.8637 34.724 29.629 35.0227 29.1597C35.364 28.6477 35.5347 27.837 35.5347 26.7277V23.7197C35.5347 22.6104 35.364 21.7997 35.0227 21.2877C34.724 20.7757 34.2334 20.5197 33.5507 20.5197H32.3347V29.8637H33.5507ZM33.6787 48.6797C34.3614 48.6797 34.852 48.4237 35.1507 47.9117C35.492 47.3997 35.6627 46.589 35.6627 45.4797V42.2797C35.6627 41.1704 35.492 40.381 35.1507 39.9117C34.852 39.3997 34.3614 39.1437 33.6787 39.1437H32.3347V48.6797H33.6787Z"
        fill="#A5E9FB"
      />
      <path
        d="M15.3626 56.9997H6.08258V21.1597H0.642578V12.1997H20.8026V21.1597H15.3626V56.9997Z"
        fill="#A5E9FB"
      />
      <path
        d="M144.838 94.0003C145.894 92.2243 147.118 90.2803 148.51 88.1683C149.854 86.0563 151.222 83.9202 152.614 81.7603C154.054 79.5522 155.446 77.3923 156.79 75.2803C158.182 73.1203 159.43 71.1043 160.534 69.2323H164.926L155.422 82.6243L155.566 82.7683C156.478 81.6643 157.582 80.3203 158.878 78.7363C160.174 77.1043 161.59 75.5443 163.126 74.0563C164.71 72.5683 166.39 71.2962 168.166 70.2402C169.942 69.1842 171.766 68.6562 173.638 68.6562C174.79 68.6562 175.726 68.9683 176.446 69.5923C177.214 70.1683 177.598 71.0322 177.598 72.1842C177.598 72.8562 177.358 73.6723 176.878 74.6323C176.398 75.5923 175.822 76.5763 175.15 77.5843C174.526 78.5443 173.878 79.4803 173.206 80.3923C172.534 81.3043 172.006 82.0483 171.622 82.6243L171.766 82.7683C172.774 81.3283 173.974 79.7923 175.366 78.1603C176.806 76.5283 178.318 75.0162 179.902 73.6242C181.534 72.1842 183.19 71.0083 184.87 70.0963C186.598 69.1363 188.254 68.6562 189.838 68.6562C191.23 68.6562 192.262 68.9922 192.934 69.6642C193.654 70.3363 194.014 71.2723 194.014 72.4723C194.014 73.2883 193.726 74.2483 193.15 75.3523C192.622 76.4563 191.926 77.6323 191.062 78.8803C190.246 80.0803 189.358 81.3043 188.398 82.5522C187.438 83.8003 186.526 85.0003 185.662 86.1523C184.846 87.3043 184.15 88.3843 183.574 89.3923C183.046 90.3522 182.782 91.1682 182.782 91.8402C182.782 92.4162 182.95 92.8723 183.286 93.2083C183.67 93.5443 184.126 93.7122 184.654 93.7122C185.806 93.7122 187.15 93.2563 188.686 92.3443C190.27 91.4323 191.95 90.1603 193.726 88.5283C195.55 86.8963 197.446 84.9523 199.414 82.6963C201.382 80.3923 203.374 77.8722 205.39 75.1362L205.966 75.4243C203.998 78.1123 202.03 80.6322 200.062 82.9842C198.094 85.2882 196.174 87.3042 194.302 89.0322C192.478 90.7603 190.702 92.1283 188.974 93.1363C187.294 94.0963 185.734 94.5762 184.294 94.5762C182.806 94.5762 181.702 94.1682 180.982 93.3522C180.262 92.4882 179.902 91.4323 179.902 90.1842C179.902 89.2722 180.166 88.2643 180.694 87.1603C181.27 86.0083 181.966 84.8323 182.782 83.6323C183.646 82.4323 184.558 81.2322 185.518 80.0322C186.478 78.8322 187.366 77.6803 188.182 76.5763C189.046 75.4723 189.742 74.4642 190.27 73.5522C190.846 72.6403 191.134 71.8963 191.134 71.3203C191.134 70.6483 190.942 70.1923 190.558 69.9523C190.222 69.6643 189.79 69.5203 189.262 69.5203C188.302 69.5203 187.174 69.8563 185.878 70.5283C184.582 71.1523 183.214 72.0643 181.774 73.2643C180.382 74.4163 178.942 75.7843 177.454 77.3683C175.966 78.9043 174.502 80.5842 173.062 82.4082C171.67 84.1842 170.35 86.0803 169.102 88.0963C167.854 90.0643 166.774 92.0323 165.862 94.0003H161.254C162.598 91.6003 164.038 89.2003 165.574 86.8003C167.158 84.4003 168.622 82.1923 169.966 80.1763C171.31 78.1122 172.438 76.3363 173.35 74.8483C174.262 73.3123 174.718 72.1842 174.718 71.4642C174.718 70.1682 174.046 69.5203 172.702 69.5203C171.502 69.5203 170.158 69.9763 168.67 70.8883C167.182 71.7523 165.67 72.9043 164.134 74.3443C162.598 75.7363 161.086 77.3443 159.598 79.1683C158.11 80.9443 156.694 82.7443 155.35 84.5683C154.054 86.3923 152.902 88.1443 151.894 89.8243C150.886 91.4563 150.094 92.8483 149.518 94.0003H144.838Z"
        fill="#002B4D"
      />
      <path
        d="M128.751 69.2324H133.287L126.159 80.0324H136.959L144.303 69.2324H149.271L140.199 81.6164C138.903 83.4404 137.919 84.9284 137.247 86.0804C136.239 87.7604 135.615 89.0084 135.375 89.8244C135.183 90.6404 135.087 91.1924 135.087 91.4804C135.087 92.2964 135.279 92.8724 135.663 93.2084C136.047 93.5444 136.479 93.7124 136.959 93.7124C137.439 93.7124 138.015 93.6164 138.687 93.4244C139.407 93.1844 140.223 92.7764 141.135 92.2004C142.095 91.6244 143.151 90.8324 144.303 89.8244C145.503 88.8164 146.871 87.5204 148.407 85.9364C150.951 83.3444 153.951 79.6964 157.407 74.9924L158.127 75.2084C154.767 79.9124 151.671 83.7044 148.839 86.5844C143.655 91.9124 139.551 94.5764 136.527 94.5764C135.039 94.5764 133.863 94.1924 132.999 93.4244C132.183 92.6564 131.775 91.6724 131.775 90.4724C131.775 90.0404 131.823 89.5364 131.919 88.9604C132.063 88.3364 132.279 87.6884 132.567 87.0164C132.807 86.5364 133.119 85.9364 133.503 85.2164C133.887 84.4964 134.271 83.8724 134.655 83.3444L136.311 80.8964H125.655L117.303 94.0004H112.839L128.751 69.2324Z"
        fill="#002B4D"
      />
      <path
        d="M114.926 71.5363C114.926 70.8643 114.734 70.3602 114.35 70.0243C114.014 69.6883 113.582 69.5203 113.054 69.5203C112.046 69.5203 110.942 69.9283 109.742 70.7443C108.59 71.5123 107.438 72.4963 106.286 73.6963C105.134 74.8483 104.078 76.0962 103.118 77.4403C102.206 78.7843 101.51 79.9843 101.03 81.0403C102.086 80.8483 103.406 80.4883 104.99 79.9603C106.574 79.3843 108.086 78.6882 109.526 77.8722C111.014 77.0562 112.286 76.1203 113.342 75.0643C114.398 73.9603 114.926 72.7843 114.926 71.5363ZM126.59 75.3523C125.87 76.5523 124.958 77.8723 123.854 79.3123C122.798 80.7523 121.574 82.1923 120.182 83.6323C118.838 85.0243 117.374 86.3923 115.79 87.7363C114.254 89.0323 112.646 90.2083 110.966 91.2643C109.286 92.2723 107.582 93.0882 105.854 93.7122C104.174 94.2882 102.518 94.5762 100.886 94.5762C98.8698 94.5762 97.3098 94.0723 96.2058 93.0643C95.1018 92.0083 94.5498 90.5203 94.5498 88.6003C94.5498 86.4883 95.1738 84.2803 96.4218 81.9762C97.7178 79.6243 99.3498 77.4642 101.318 75.4963C103.286 73.5282 105.446 71.8963 107.798 70.6003C110.15 69.3042 112.406 68.6562 114.566 68.6562C115.766 68.6562 116.702 68.9202 117.374 69.4482C118.046 69.9282 118.382 70.6482 118.382 71.6082C118.382 72.7603 117.758 73.8883 116.51 74.9923C115.262 76.0483 113.726 77.0323 111.902 77.9443C110.126 78.8083 108.206 79.6003 106.142 80.3203C104.078 80.9923 102.254 81.4963 100.67 81.8323C100.142 82.7923 99.7098 83.8723 99.3738 85.0723C99.0378 86.2723 98.8698 87.4723 98.8698 88.6723C98.8698 89.2483 98.9178 89.8243 99.0138 90.4003C99.1578 90.9283 99.3498 91.4323 99.5898 91.9123C99.8778 92.3443 100.238 92.7042 100.67 92.9922C101.15 93.2802 101.726 93.4243 102.398 93.4243C103.982 93.4243 105.83 92.9203 107.942 91.9123C110.102 90.8563 112.286 89.4643 114.494 87.7363C116.702 86.0083 118.814 84.0403 120.83 81.8323C122.846 79.6243 124.574 77.3443 126.014 74.9923L126.59 75.3523Z"
        fill="#002B4D"
      />
      <path
        d="M71.2207 78.6642C69.3967 81.5442 68.0047 83.8962 67.0447 85.7202C66.1327 87.5442 65.6767 89.0562 65.6767 90.2562C65.6767 91.3602 65.9407 92.2242 66.4687 92.8482C67.0447 93.4242 67.8847 93.7122 68.9887 93.7122C70.3327 93.7122 72.0847 93.0162 74.2447 91.6242C76.4527 90.1842 78.6127 88.0482 80.7247 85.2162C81.3967 84.3042 82.0447 83.3682 82.6687 82.4082C83.2927 81.4002 83.8207 80.4402 84.2527 79.5282C84.7327 78.5682 85.0927 77.6562 85.3327 76.7922C85.6207 75.9282 85.7647 75.1362 85.7647 74.4162C85.7647 73.6482 85.6447 73.0722 85.4047 72.6882C85.1647 72.2562 85.0447 71.6562 85.0447 70.8882C85.0447 70.0722 85.2367 69.4962 85.6207 69.1602C86.0527 68.8242 86.5087 68.6562 86.9887 68.6562C87.8047 68.6562 88.4527 69.0642 88.9327 69.8802C89.4127 70.6962 89.6527 71.8722 89.6527 73.4082C89.6527 74.0322 89.6287 74.5842 89.5807 75.0642C89.5327 75.4962 89.4607 75.9762 89.3647 76.5042C89.6527 76.8882 90.2527 77.3922 91.1647 78.0162C92.1247 78.6402 93.3727 78.9522 94.9087 78.9522C96.4447 78.9522 97.7647 78.5682 98.8687 77.8002C100.021 77.0322 100.981 76.1682 101.749 75.2082L102.253 75.7122C101.437 76.6242 100.429 77.5122 99.2287 78.3762C98.0287 79.2402 96.5647 79.6722 94.8367 79.6722C93.6847 79.6722 92.6047 79.4562 91.5967 79.0242C90.6367 78.5922 89.7967 78.0642 89.0767 77.4402C88.4047 79.4082 87.4927 81.2322 86.3407 82.9122C85.2367 84.5442 83.9167 86.0802 82.3807 87.5202C79.5007 90.2082 76.8847 92.0562 74.5327 93.0642C72.1807 94.0722 70.0447 94.5762 68.1247 94.5762C66.4447 94.5762 65.0287 94.0482 63.8767 92.9922C62.7727 91.9842 62.2207 90.5922 62.2207 88.8162C62.2207 87.9522 62.4607 86.9202 62.9407 85.7202C63.4207 84.4722 63.9967 83.2002 64.6687 81.9042C65.3887 80.6082 66.1087 79.3362 66.8287 78.0882C67.5967 76.8402 68.2687 75.7842 68.8447 74.9202L79.7167 58.1442C80.9647 56.2722 82.3087 54.5442 83.7487 52.9602C85.1887 51.3282 86.9647 49.7202 89.0767 48.1362C90.9487 46.6962 92.7967 45.6402 94.6207 44.9682C96.4447 44.2482 98.1247 43.8882 99.6607 43.8882C101.293 43.8882 102.373 44.1282 102.901 44.6082C103.477 45.0882 103.765 45.8082 103.765 46.7682C103.765 48.0642 103.213 49.5042 102.109 51.0882C101.053 52.6722 99.5167 54.3522 97.5007 56.1282C95.9647 57.5202 94.2607 58.9122 92.3887 60.3042C90.5647 61.6962 88.6927 63.0402 86.7727 64.3362L75.5407 71.9682L71.2207 78.6642ZM86.0527 63.9762C87.7327 62.8242 89.4367 61.5042 91.1647 60.0162C92.9407 58.4802 94.4527 56.9442 95.7007 55.4082C96.9487 53.8722 97.9567 52.3602 98.7247 50.8722C99.4927 49.3362 99.8767 47.9442 99.8767 46.6962C99.8767 45.9762 99.7087 45.4722 99.3727 45.1842C99.0847 44.8962 98.6527 44.7522 98.0767 44.7522C97.1647 44.7522 96.1567 45.1122 95.0527 45.8322C93.9487 46.5042 92.8447 47.3922 91.7407 48.4962C90.6847 49.5522 89.6527 50.7522 88.6447 52.0962C87.6847 53.3922 86.8447 54.6402 86.1247 55.8402L76.4767 70.5282L86.0527 63.9762Z"
        fill="#002B4D"
      />
      <path
        d="M72.3221 75.6402C70.6421 77.4642 68.9621 79.1682 67.2821 80.7522C65.6021 82.2882 63.8501 83.7042 62.0261 85.0002C58.0901 87.7362 53.6261 89.8722 48.6341 91.4082C47.0981 92.5122 45.5141 93.3282 43.8821 93.8562C42.2501 94.3362 40.7381 94.5762 39.3461 94.5762C37.5221 94.5762 36.0581 94.0242 34.9541 92.9202C33.8981 91.7682 33.3701 90.1602 33.3701 88.0962C33.3701 86.7522 33.6581 85.3842 34.2341 83.9922C34.8101 82.6002 35.5061 81.2802 36.3221 80.0322C37.1861 78.7842 38.0741 77.6562 38.9861 76.6482C39.8981 75.6402 40.6901 74.8242 41.3621 74.2002C43.5221 72.2322 45.6341 70.8162 47.6981 69.9522C49.8101 69.0882 51.5621 68.6562 52.9541 68.6562C53.3381 68.6562 53.7701 68.7042 54.2501 68.8002C54.7301 68.8962 55.1861 69.1122 55.6181 69.4482C56.0501 69.7362 56.4341 70.1682 56.7701 70.7442C57.1541 71.2722 57.3941 71.9682 57.4901 72.8322H57.7061C59.0021 69.6642 60.1781 66.3522 61.2341 62.8962C62.2901 59.4402 62.8181 55.8882 62.8181 52.2402C62.8181 49.4562 62.2661 47.5362 61.1621 46.4802C60.2981 45.6642 59.0741 45.2562 57.4901 45.2562C56.7701 45.2562 55.9781 45.4002 55.1141 45.6882C54.2501 45.9762 53.4101 46.3602 52.5941 46.8402C51.6341 47.4642 50.7461 48.0642 49.9301 48.6402L49.5701 47.9922C50.7701 47.0322 51.9941 46.2162 53.2421 45.5442C54.2981 45.0162 55.3301 44.6082 56.3381 44.3202C57.3941 44.0322 58.5461 43.8882 59.7941 43.8882C61.5701 43.8882 62.9621 44.3202 63.9701 45.1842C65.6021 46.5282 66.4181 49.0482 66.4181 52.7442C66.4181 53.8962 66.3221 55.1202 66.1301 56.4162C65.9861 57.7122 65.7701 59.0322 65.4821 60.3762C65.1941 61.7202 64.8581 63.0402 64.4741 64.3362C64.0901 65.6322 63.7061 66.8562 63.3221 68.0082C62.8901 69.2082 62.3861 70.5282 61.8101 71.9682C61.2341 73.4082 60.6101 74.8722 59.9381 76.3602C59.2661 77.8002 58.5701 79.2162 57.8501 80.6082C57.1301 81.9522 56.4101 83.1282 55.6901 84.1362C54.9701 85.1922 54.1541 86.2242 53.2421 87.2322C52.3781 88.1922 51.3221 89.2002 50.0741 90.2562C52.2821 89.5362 54.3221 88.6962 56.1941 87.7362C58.1141 86.7282 59.9621 85.6002 61.7381 84.3522C63.4661 83.1042 65.1461 81.7362 66.7781 80.2482C68.4581 78.7602 70.1381 77.1042 71.8181 75.2802L72.3221 75.6402ZM52.5941 69.5202C51.4421 69.5202 50.0261 70.0962 48.3461 71.2482C46.7141 72.4002 45.1541 73.8642 43.6661 75.6402C41.8421 77.8002 40.3061 80.1522 39.0581 82.6962C37.8581 85.1922 37.2581 87.4962 37.2581 89.6082C37.2581 91.0962 37.5221 92.1522 38.0501 92.7762C38.5781 93.4002 39.2741 93.7122 40.1381 93.7122C41.5301 93.7122 43.0421 93.2322 44.6741 92.2722C46.3061 91.3122 47.9621 89.8002 49.6421 87.7362C50.6981 86.3922 51.6341 85.0242 52.4501 83.6322C53.2661 82.2402 53.9141 80.9202 54.3941 79.6722C54.9221 78.4242 55.3061 77.2722 55.5461 76.2162C55.8341 75.1122 55.9781 74.2002 55.9781 73.4802C55.9781 70.8402 54.8501 69.5202 52.5941 69.5202Z"
        fill="#002B4D"
      />
      <path
        d="M28.3777 69.2323H33.0577C31.2817 71.7282 29.5777 74.1522 27.9457 76.5042C26.3137 78.8562 24.8497 81.0403 23.5537 83.0563C22.3057 85.0243 21.2977 86.7763 20.5297 88.3123C19.7617 89.8003 19.3777 90.9762 19.3777 91.8402C19.3777 93.0882 20.0257 93.7122 21.3217 93.7122C22.3297 93.7122 23.6017 93.2323 25.1377 92.2723C26.7217 91.2643 28.4257 89.8963 30.2497 88.1683C32.0737 86.4403 33.9457 84.4243 35.8657 82.1203C37.7857 79.8162 39.6097 77.3682 41.3377 74.7762L41.7697 74.9202C40.4737 76.8883 38.9377 79.0243 37.1617 81.3283C35.4337 83.5843 33.6097 85.6962 31.6897 87.6642C29.7697 89.6322 27.8497 91.2882 25.9297 92.6322C24.0097 93.9282 22.2097 94.5762 20.5297 94.5762C19.1377 94.5762 18.1057 94.2403 17.4337 93.5683C16.8097 92.8483 16.4977 92.0082 16.4977 91.0482C16.4977 90.3762 16.5937 89.7283 16.7857 89.1043C17.0257 88.4323 17.2657 87.7603 17.5057 87.0883L17.3617 87.0163C16.7377 87.6883 15.9457 88.4802 14.9857 89.3923C14.0737 90.2563 13.0657 91.0722 11.9617 91.8402C10.9057 92.6082 9.80167 93.2562 8.64967 93.7842C7.49767 94.3122 6.39367 94.5762 5.33767 94.5762C3.56167 94.5762 2.31367 94.0243 1.59367 92.9202C0.873672 91.8162 0.513672 90.5683 0.513672 89.1763C0.513672 87.2083 1.13767 85.0483 2.38567 82.6963C3.63367 80.2963 5.21767 78.0643 7.13767 76.0003C9.05767 73.8883 11.1457 72.1363 13.4017 70.7443C15.6577 69.3523 17.7937 68.6562 19.8097 68.6562C20.7697 68.6562 21.6097 68.8002 22.3297 69.0882C23.0497 69.3282 23.6497 69.6883 24.1297 70.1683C24.6097 70.6003 24.9697 71.1043 25.2097 71.6803C25.4977 72.2563 25.7137 72.8563 25.8577 73.4803H26.0017L28.3777 69.2323ZM4.83367 89.3923C4.83367 90.4963 5.04967 91.3603 5.48167 91.9843C5.96167 92.5603 6.60967 92.8483 7.42567 92.8483C8.24167 92.8483 9.20167 92.5603 10.3057 91.9843C11.4097 91.3603 12.5617 90.5443 13.7617 89.5363C14.9617 88.5283 16.1377 87.3762 17.2897 86.0802C18.4897 84.7362 19.5457 83.3203 20.4577 81.8323C21.3697 80.3443 22.1137 78.8322 22.6897 77.2962C23.2657 75.7603 23.5537 74.2963 23.5537 72.9043C23.5537 71.8003 23.2417 70.9603 22.6177 70.3843C21.9937 69.8083 21.2257 69.5203 20.3137 69.5203C18.8737 69.5203 17.2657 70.1443 15.4897 71.3923C13.7137 72.6402 12.0337 74.2483 10.4497 76.2163C8.86567 78.1363 7.52167 80.2723 6.41767 82.6243C5.36167 84.9763 4.83367 87.2323 4.83367 89.3923Z"
        fill="#002B4D"
      />
    </g>
    <defs>
      <clipPath id="clip0_349_2063">
        <rect
          fill="white"
          height="155"
          width="224"
        />
      </clipPath>
    </defs>
  </symbol>
  <symbol
    id="arrow"
    fill="none"
    viewBox="0 0 17 18"
  >
    <rect
      fill="#002B4D"
      height="17"
      rx="8.5"
      width="17"
      y="0.541992"
    />
    <path
      d="M4.77166 12.0637C4.57641 12.2589 4.57642 12.5755 4.77169 12.7708C4.96696 12.966 5.28354 12.966 5.47879 12.7708L4.77166 12.0637ZM12.3749 5.66705C12.3749 5.39091 12.151 5.16706 11.8749 5.16707L7.37491 5.16722C7.09876 5.16723 6.87491 5.3911 6.87492 5.66724C6.87493 5.94338 7.0988 6.16723 7.37494 6.16722L11.3749 6.16709L11.3751 10.1671C11.3751 10.4432 11.599 10.6671 11.8751 10.6671C12.1512 10.6671 12.3751 10.4432 12.3751 10.1671L12.3749 5.66705ZM5.47879 12.7708L12.2285 6.02061L11.5214 5.31353L4.77166 12.0637L5.47879 12.7708Z"
      fill="#A5E9FB"
    />
  </symbol>

  <symbol id="heart" viewBox="0 0 804 633" fill="none">
    <path
      d="M321.121 47.2602C239.689 -23.1474 116.88 -13.8141 46.906 68.1001C-22.9813 149.913 -13.71 273.17 67.6205 343.49L398.94 629.956L401.54 633L402 632.602L402.46 633L405.06 629.956L736.38 343.49C817.71 273.17 826.981 149.913 757.094 68.1001C687.12 -13.8141 564.311 -23.1474 482.879 47.2602L402 117.19L321.121 47.2602Z"
      fill="white"/>
  </symbol>

  <symbol id="fb-promos-modal-close-icon" viewBox="0 0 20 20" fill="none">
    <path
      d="M5.30729 15.8464L4.14062 14.6797L8.80729 10.013L4.14062 5.34635L5.30729 4.17969L9.97396 8.84635L14.6406 4.17969L15.8073 5.34635L11.1406 10.013L15.8073 14.6797L14.6406 15.8464L9.97396 11.1797L5.30729 15.8464Z"
      fill="currentcolor"/>
  </symbol>

  <symbol id="bg-star" viewBox="0 0 1215 726" fill="none">
    <g opacity="0.78" filter="url(#filter0_f_228_7103)">
      <path
        d="M523.205 358.16L32 324.965L522.019 291.375C535.06 290.19 541.383 274.778 532.689 264.898L421.249 135.676L550.867 232.099C560.747 239.607 574.973 233.679 576.554 221.429L609.354 -22L644.919 227.357C646.5 239.212 660.331 245.14 670.211 238.422L800.224 146.345L703.801 261.737C695.502 272.012 701.825 287.424 714.866 288.214L1182.36 325.756L718.027 359.741C705.382 360.531 698.663 375.153 705.777 385.427L793.901 508.723L678.51 427.316C668.63 420.203 654.799 426.526 653.218 438.381L618.838 693.665L582.482 438.381C580.901 426.526 567.07 420.598 557.19 427.711L423.225 524.135L534.27 385.427C542.173 375.548 535.851 360.531 523.205 359.346V358.16Z"
        fill="white"/>
    </g>
    <defs>
      <filter id="filter0_f_228_7103" x="0" y="-54" width="1214.36" height="779.665" filterUnits="userSpaceOnUse"
              color-interpolation-filters="sRGB">
        <feFlood flood-opacity="0" result="BackgroundImageFix"/>
        <feBlend mode="normal" in="SourceGraphic" in2="BackgroundImageFix" result="shape"/>
        <feGaussianBlur stdDeviation="16" result="effect1_foregroundBlur_228_7103"/>
      </filter>
    </defs>
  </symbol>

</svg>
