<svg width="85" height="85" viewBox="0 0 85 85" fill="none" xmlns="http://www.w3.org/2000/svg">
  <g>
    <path fill-rule="evenodd" clip-rule="evenodd"
          d="M29.4684 58.721C29.4736 61.6052 27.4307 63.9486 24.911 63.9486C22.3957 63.9486 20.3537 61.6042 20.3537 58.721H29.4684ZM62.3417 53.4914C64.8605 53.4914 66.8991 55.8349 66.8991 58.721C66.9043 61.6052 64.8597 63.9486 62.3417 63.9486C59.822 63.9486 57.7826 61.6042 57.7826 58.721C57.7826 57.6586 58.0645 56.623 58.59 55.7501L60.9775 59.2198C61.4212 59.9172 62.1825 60.2245 62.835 59.7925C63.4876 59.3615 63.6103 58.4626 63.3292 57.6625L61.5126 53.5842C61.7875 53.5224 62.0642 53.4964 62.3417 53.4914ZM51.6801 15.9375C48.9255 15.9375 47.8109 18.1253 47.0766 19.2676C46.5824 20.0328 46.5006 20.4488 45.7089 20.6713L42.7402 21.5133C41.2716 21.9273 41.6118 24.3705 43.3928 24.2308L46.1334 24.0183C47.335 23.9226 48.0319 24.4593 48.2625 25.5288L51.9959 42.4147C53.2296 47.9895 53.515 52.7442 46.8669 52.7442L40.7922 52.7442C36.7325 52.7442 34.5661 48.7956 35.8894 45.3827L37.8183 40.3995C38.7832 37.9164 38.2038 35.7794 35.8981 35.7794H22.1773C21.0454 35.7794 20.1379 36.826 20.1379 38.1189C20.1379 38.5928 20.2606 39.0287 20.4694 39.3969C14.3486 41.5328 10.0983 49.3413 10.6778 56.0324C10.8866 58.4327 12.1003 58.722 12.9974 58.722H15.8929C15.8929 64.4325 19.9308 69.0625 24.9093 69.0625C29.8939 69.0625 33.9309 64.4315 33.9309 58.722L53.3236 58.722C53.3236 64.4325 57.3598 69.0625 62.34 69.0625C67.3245 69.0625 71.3598 64.4315 71.3598 58.722C71.3564 56.9053 70.9387 55.1286 70.1461 53.5543L70.6986 53.653C71.7096 53.8356 71.9715 52.405 71.4738 51.154C69.8103 46.9978 66.277 44.2703 62.3565 44.0468C61.9754 44.0259 61.6222 43.7715 61.6222 43.2407V42.4097C61.6222 41.4071 61.6326 40.586 60.9392 39.5056L52.9147 26.9234C52.2386 25.862 52.792 25.2135 53.649 25.2135H55.1072C56.2217 25.2135 57.0239 24.9431 56.8656 23.4676L56.267 17.8879C56.1443 16.7296 55.7128 15.9385 54.2598 15.9385L51.6801 15.9375Z"
          fill="url(#paint0_linear_9801_4968)"/>
    <path fill-rule="evenodd" clip-rule="evenodd"
          d="M22.8452 15.9375C21.9594 15.9375 21.25 16.7982 21.25 17.8647V29.9526C21.25 31.0152 21.9594 31.875 22.8452 31.875H35.5939C36.4789 31.875 37.1875 31.0143 37.1875 29.9526V17.8657C37.1875 16.7992 36.4781 15.9385 35.5939 15.9385H30.8644V20.0537C30.8644 20.673 30.454 21.1656 29.9458 21.1656H28.4973C27.9883 21.1656 27.5755 20.672 27.5755 20.0537V15.9385L22.8452 15.9375Z"
          fill="url(#paint1_linear_9801_4968)"/>
  </g>
  <defs>
    <linearGradient id="paint0_linear_9801_4968" x1="41.1719" y1="15.9375" x2="41.1719" y2="69.0625"
                    gradientUnits="userSpaceOnUse">
      <stop stop-color="#DB9DEE"/>
      <stop offset="1" stop-color="#6F81B4"/>
    </linearGradient>
    <linearGradient id="paint1_linear_9801_4968" x1="29.2188" y1="15.9375" x2="29.2188" y2="31.875"
                    gradientUnits="userSpaceOnUse">
      <stop stop-color="#DB9DEE"/>
      <stop offset="1" stop-color="#6F81B4"/>
    </linearGradient>
  </defs>
</svg>
