<svg width="91" height="90" viewBox="0 0 91 90" fill="none" xmlns="http://www.w3.org/2000/svg">
<mask id="mask0_4822_127512" style="mask-type:alpha" maskUnits="userSpaceOnUse" x="0" y="0" width="91" height="90">
<rect x="0.46875" width="90" height="90" fill="#D9D9D9"/>
</mask>
<g mask="url(#mask0_4822_127512)">
<path d="M45.4749 80.6248C40.5477 80.6248 35.9163 79.6898 31.5808 77.8198C27.2453 75.9498 23.4739 73.412 20.2669 70.2064C17.0598 67.0007 14.5208 63.231 12.65 58.8974C10.7792 54.5639 9.84375 49.9334 9.84375 45.0062C9.84375 40.0789 10.7789 35.4476 12.6492 31.1121C14.5195 26.7765 17.0578 23.0052 20.2641 19.7981C23.4703 16.591 27.2406 14.052 31.575 12.1812C35.9093 10.3104 40.5405 9.375 45.4687 9.375C49.4189 9.375 53.1565 9.96875 56.6813 11.1563C60.2062 12.3438 63.4398 14 66.382 16.125L62.3149 20.286C59.8918 18.6178 57.2671 17.3197 54.4407 16.3917C51.6144 15.4638 48.6237 14.9999 45.4687 14.9999C37.1562 14.9999 30.078 17.9218 24.2343 23.7655C18.3905 29.6093 15.4687 36.6874 15.4687 44.9999C15.4687 53.3124 18.3905 60.3905 24.2343 66.2343C30.078 72.078 37.1562 74.9999 45.4687 74.9999C53.7812 74.9999 60.8593 72.078 66.703 66.2343C72.5468 60.3905 75.4687 53.3124 75.4687 44.9999C75.4687 43.6826 75.3821 42.3798 75.2091 41.0915C75.0359 39.8032 74.7763 38.5507 74.4302 37.334L78.9733 32.7548C79.6608 34.6826 80.1861 36.6659 80.5491 38.7044C80.9121 40.743 81.0936 42.8415 81.0936 44.9999C81.0936 49.928 80.1586 54.5593 78.2886 58.8936C76.4186 63.2279 73.8808 66.9983 70.6751 70.2045C67.4695 73.4108 63.6998 75.949 59.3662 77.8194C55.0326 79.6897 50.4022 80.6248 45.4749 80.6248ZM40.1466 60.9518L25.5072 46.3124L29.4591 42.3606L40.1466 53.0481L77.1417 15.9953L81.0936 19.9471L40.1466 60.9518Z" fill="url(#paint0_linear_4822_127512)"/>
</g>
<defs>
<linearGradient id="paint0_linear_4822_127512" x1="45.4687" y1="9.375" x2="45.4687" y2="80.6248" gradientUnits="userSpaceOnUse">
<stop stop-color="#DB9DEE"/>
<stop offset="1" stop-color="#6F81B4"/>
</linearGradient>
</defs>
</svg>
