<svg width="64" height="64" viewBox="0 0 64 64" fill="none" xmlns="http://www.w3.org/2000/svg">
  <path
    d="M64 32C64 49.6731 49.6731 64 32 64C14.3269 64 0 49.6731 0 32C0 14.3269 14.3269 0 32 0C49.6731 0 64 14.3269 64 32Z"
    fill="url(#paint0_radial_622_1924)"/>
  <path
    d="M64 32C64 49.6731 49.6731 64 32 64C14.3269 64 0 49.6731 0 32C0 14.3269 14.3269 0 32 0C49.6731 0 64 14.3269 64 32Z"
    fill="url(#paint1_radial_622_1924)"/>
  <path
    d="M64 32C64 49.6731 49.6731 64 32 64C14.3269 64 0 49.6731 0 32C0 14.3269 14.3269 0 32 0C49.6731 0 64 14.3269 64 32Z"
    fill="url(#paint2_radial_622_1924)" fill-opacity="0.2"/>
  <defs>
    <radialGradient id="paint0_radial_622_1924" cx="0" cy="0" r="1" gradientUnits="userSpaceOnUse"
                    gradientTransform="translate(32 32) rotate(90) scale(32)">
      <stop stop-color="white" stop-opacity="0.45"/>
      <stop offset="0.519231" stop-color="#FFD88D" stop-opacity="0"/>
    </radialGradient>
    <radialGradient id="paint1_radial_622_1924" cx="0" cy="0" r="1" gradientUnits="userSpaceOnUse"
                    gradientTransform="translate(32 32) rotate(90) scale(32)">
      <stop offset="0.120192" stop-color="white"/>
      <stop offset="0.283654" stop-color="#FFD27D"/>
      <stop offset="0.341346" stop-color="#FFED8B" stop-opacity="0"/>
    </radialGradient>
    <radialGradient id="paint2_radial_622_1924" cx="0" cy="0" r="1" gradientUnits="userSpaceOnUse"
                    gradientTransform="translate(32 32) rotate(90) scale(32)">
      <stop offset="0.32" stop-color="white" stop-opacity="0"/>
      <stop offset="0.33" stop-color="white"/>
      <stop offset="0.34" stop-color="white"/>
      <stop offset="0.35" stop-color="white" stop-opacity="0"/>
    </radialGradient>
  </defs>
</svg>
